<?xml version="1.0" encoding="UTF-8" standalone="no"?>
<svg
   xmlns:dc="http://purl.org/dc/elements/1.1/"
   xmlns:cc="http://creativecommons.org/ns#"
   xmlns:rdf="http://www.w3.org/1999/02/22-rdf-syntax-ns#"
   xmlns:svg="http://www.w3.org/2000/svg"
   xmlns="http://www.w3.org/2000/svg"
   xmlns:sodipodi="http://sodipodi.sourceforge.net/DTD/sodipodi-0.dtd"
   xmlns:inkscape="http://www.inkscape.org/namespaces/inkscape"
   viewBox="0 0 737.01 490.4"
   version="1.1"
   id="svg88"
   sodipodi:docname="LogoCristofoli.svg"
   inkscape:version="1.0.1 (1.0.1+r74)">
  <metadata
     id="metadata92">
    <rdf:RDF>
      <cc:Work
         rdf:about="">
        <dc:format>image/svg+xml</dc:format>
        <dc:type
           rdf:resource="http://purl.org/dc/dcmitype/StillImage" />
        <dc:title>Logo-Cristófoli</dc:title>
      </cc:Work>
    </rdf:RDF>
  </metadata>
  <sodipodi:namedview
     pagecolor="#ffffff"
     bordercolor="#666666"
     borderopacity="1"
     objecttolerance="10"
     gridtolerance="10"
     guidetolerance="10"
     inkscape:pageopacity="0"
     inkscape:pageshadow="2"
     inkscape:window-width="1366"
     inkscape:window-height="704"
     id="namedview90"
     showgrid="false"
     inkscape:zoom="0.92370266"
     inkscape:cx="368.505"
     inkscape:cy="239.01925"
     inkscape:window-x="0"
     inkscape:window-y="27"
     inkscape:window-maximized="1"
     inkscape:current-layer="svg88" />
  <defs
     id="defs72">
    <style
       id="style70">.cls-1{fill:#003b4d;}.cls-1,.cls-2,.cls-3{fill-rule:evenodd;}.cls-2{fill:#006580;}.cls-3{fill:#0083c1;}</style>
  </defs>
  <title
     id="title74">Logo-Cristófoli</title>
  <g
     id="Camada_2"
     data-name="Camada 2">
    <g
       id="Camada_1-2"
       data-name="Camada 1">
      <path
         class="cls-1"
         d="M706.22,482.76l11.12-23.25h7.15l11.28,23.25h-7.11l-2.37-4.94H715l-2,4.94Zm18.61-8.85-3.28-7.51a11.68,11.68,0,0,1-.36-1.14c-.14-.54-.3-1.2-.45-2-.18.75-.34,1.43-.5,2s-.28,1-.36,1.2l-3.16,7.41ZM659.1,489.72v-2c1.06.23,2,.39,2.94.51a17.17,17.17,0,0,0,2.21.18,3,3,0,0,0,1.51-.3,1,1,0,0,0,.49-.9.85.85,0,0,0-.54-.83,5.15,5.15,0,0,0-1.87-.24h-.64l-.5,0v-3.39h2v1.43h.3a6.42,6.42,0,0,1,3.5.77,2.79,2.79,0,0,1-.14,4.66,8.07,8.07,0,0,1-4,.78,20.83,20.83,0,0,1-2.38-.17Q660.66,490.05,659.1,489.72Zm14.51-24.16a13.5,13.5,0,0,0-8.18-2.61,11.62,11.62,0,0,0-7.45,2.22,7.28,7.28,0,0,0-2.77,6,7.19,7.19,0,0,0,2.57,5.82,10.64,10.64,0,0,0,7,2.16,15.82,15.82,0,0,0,4.71-.68,13.74,13.74,0,0,0,4-2l0,5.09a18.85,18.85,0,0,1-4.18,1.4,22.08,22.08,0,0,1-4.6.46q-7,0-11.48-3.45a10.81,10.81,0,0,1,0-17.53q4.5-3.45,11.59-3.45a26.4,26.4,0,0,1,4.59.39,24.32,24.32,0,0,1,4.37,1.23Zm-87.93,17.2V459.51h6.49L605.11,473a10.87,10.87,0,0,1,1.23,1.61c.44.7.91,1.52,1.39,2.46a16.44,16.44,0,0,1-.32-2.05c-.07-.68-.1-1.52-.1-2.54v-13h6v23.25h-6.13L593.84,469a10,10,0,0,1-1.21-1.61c-.44-.69-.91-1.52-1.4-2.48a17,17,0,0,1,.32,2c.06.69.1,1.54.1,2.58v13.28Zm-62.9,0,11.12-23.25h7.15l11.29,23.25h-7.11l-2.38-4.94H531.53l-2,4.94Zm18.61-8.85-3.27-7.51a9.4,9.4,0,0,1-.36-1.14c-.15-.54-.3-1.2-.46-2-.18.75-.34,1.43-.5,2s-.28,1-.36,1.2l-3.16,7.41Zm-63.94-4.49h.94q3.8,0,5-.66a2.4,2.4,0,0,0,1.22-2.3,2.58,2.58,0,0,0-1.31-2.44,11.38,11.38,0,0,0-4.92-.72h-.94Zm14.9,13.34h-7.21l-7.69-10.86v10.86H471.2V459.51h8.95c3.55,0,6.21.54,8,1.64a5.75,5.75,0,0,1,.84,9.05,7.73,7.73,0,0,1-4.69,2Zm-57.89-23.25V474q0,4.74-3.13,7.07c-2.1,1.56-5.24,2.34-9.45,2.34s-7.45-.78-9.54-2.34-3.14-3.91-3.14-7.07V459.51h6.21V473.2a5.59,5.59,0,0,0,1.59,4.33,6.92,6.92,0,0,0,4.78,1.45,7.09,7.09,0,0,0,4.84-1.46,5.51,5.51,0,0,0,1.63-4.32V459.51Zm-73.73,11h13.32a2.92,2.92,0,0,1,.06.44v.73a10.65,10.65,0,0,1-3.75,8.47,14.33,14.33,0,0,1-9.71,3.24,17.66,17.66,0,0,1-11.22-3.45,10.86,10.86,0,0,1,0-17.5,19.45,19.45,0,0,1,17.76-2.26,15.61,15.61,0,0,1,5.31,3.56l-4.22,2.48A10,10,0,0,0,365,464a10.89,10.89,0,0,0-4-.69,10.59,10.59,0,0,0-6.93,2.14,7.57,7.57,0,0,0,0,11.43,10.24,10.24,0,0,0,6.8,2.17,9.64,9.64,0,0,0,5-1.15,3.44,3.44,0,0,0,1.91-3v-.25h-7Zm-68.14,12.26V459.51H309.8v4.19h-11v4.79h11v4.22h-11v5.83h11v4.22Zm-55-3,3.48-3.12a4.58,4.58,0,0,0,2.12,2,7,7,0,0,0,3.27.74,6.49,6.49,0,0,0,3.48-.82,2.54,2.54,0,0,0,1.27-2.23q0-1.65-4.25-3.28c-.92-.36-1.64-.64-2.18-.87a16.33,16.33,0,0,1-5.31-3.1,5,5,0,0,1-1.48-3.61,5.49,5.49,0,0,1,2.87-4.73,13.52,13.52,0,0,1,7.43-1.85,12.7,12.7,0,0,1,4.59.74,9,9,0,0,1,3.4,2.31l-3.69,2.81a4.15,4.15,0,0,0-1.75-1.52,6.28,6.28,0,0,0-2.62-.5,5.4,5.4,0,0,0-3,.74,2.2,2.2,0,0,0-1.14,1.91q0,1.86,4.51,3.37l1.38.48a16,16,0,0,1,5.5,3,5.24,5.24,0,0,1,1.78,3.88,6.05,6.05,0,0,1-2.8,5.22,13.08,13.08,0,0,1-7.54,1.94,16.18,16.18,0,0,1-5.76-.92A7.3,7.3,0,0,1,237.54,479.8Zm-53.17,0,3.48-3.12a4.58,4.58,0,0,0,2.12,2,7,7,0,0,0,3.27.74,6.49,6.49,0,0,0,3.48-.82,2.54,2.54,0,0,0,1.27-2.23q0-1.65-4.25-3.28c-.92-.36-1.64-.64-2.18-.87a16.33,16.33,0,0,1-5.31-3.1,5,5,0,0,1-1.48-3.61,5.49,5.49,0,0,1,2.87-4.73,13.52,13.52,0,0,1,7.43-1.85,12.7,12.7,0,0,1,4.59.74,9,9,0,0,1,3.4,2.31l-3.69,2.81a4.15,4.15,0,0,0-1.75-1.52,6.28,6.28,0,0,0-2.62-.5,5.46,5.46,0,0,0-3,.74,2.21,2.21,0,0,0-1.13,1.91q0,1.86,4.51,3.37l1.38.48a16.06,16.06,0,0,1,5.5,3,5.24,5.24,0,0,1,1.78,3.88,6,6,0,0,1-2.81,5.22,13,13,0,0,1-7.53,1.94,16.18,16.18,0,0,1-5.76-.92A7.3,7.3,0,0,1,184.37,479.8ZM135.13,479a9.71,9.71,0,0,0,6.56-2.22,7,7,0,0,0,2.58-5.55,7.08,7.08,0,0,0-2.61-5.56,10.7,10.7,0,0,0-13.13,0,7.27,7.27,0,0,0,0,11.13A9.85,9.85,0,0,0,135.13,479Zm15.57-7.77a10.08,10.08,0,0,1-1.16,4.72,12.09,12.09,0,0,1-3.37,3.91,17.11,17.11,0,0,1-5.13,2.65,19.47,19.47,0,0,1-11.16.2,17.65,17.65,0,0,1-4.7-2.08,12.88,12.88,0,0,1-4.23-4.17,10.12,10.12,0,0,1-.3-9.94,12.11,12.11,0,0,1,3.39-3.92,16.64,16.64,0,0,1,5.1-2.63,19.54,19.54,0,0,1,6-.94,19.2,19.2,0,0,1,5.93.94,16.81,16.81,0,0,1,5.11,2.63,12.08,12.08,0,0,1,3.37,3.93A10,10,0,0,1,150.7,471.18ZM77.57,482.76V459.51h6.25v23.25Zm-54.8,0V459.51h5.47a51.27,51.27,0,0,1,6.22.26,13.35,13.35,0,0,1,3.41.87,6.62,6.62,0,0,1,2.63,2,4.76,4.76,0,0,1,.92,2.88,4,4,0,0,1-1.54,3.31,9,9,0,0,1-4.59,1.66,10.57,10.57,0,0,1,5.34,1.83,4.51,4.51,0,0,1,1.81,3.76,5.21,5.21,0,0,1-1,3.14,6.74,6.74,0,0,1-2.85,2.2,14.62,14.62,0,0,1-3.8,1,59.91,59.91,0,0,1-7.21.3H22.77Zm6.25-14h1.39a9.15,9.15,0,0,0,4-.63A2.25,2.25,0,0,0,35.61,466,2.2,2.2,0,0,0,34.48,464a9,9,0,0,0-3.94-.61H29Zm0,10.09h2.45a6.38,6.38,0,0,0,3.58-.82,2.7,2.7,0,0,0,1.22-2.39,2.5,2.5,0,0,0-1.21-2.25,6.5,6.5,0,0,0-3.51-.78H29Z"
         id="path76" />
      <path
         class="cls-1"
         d="M709.56,414.52V352.75a85.68,85.68,0,0,0-.74-12.33,52.35,52.35,0,0,0-2.49-10.09H737a51.67,51.67,0,0,0-2.48,10,86.08,86.08,0,0,0-.75,12.4v61.77a86.08,86.08,0,0,0,.75,12.4,51.67,51.67,0,0,0,2.48,10H706.33a52.57,52.57,0,0,0,2.53-10,93.26,93.26,0,0,0,.7-12.4m-71.24,22.42a51.67,51.67,0,0,0,2.48-10,84.66,84.66,0,0,0,.75-12.4V352.75a84.66,84.66,0,0,0-.75-12.4,51.67,51.67,0,0,0-2.48-10H669a51.7,51.7,0,0,0-2.49,10,86.25,86.25,0,0,0-.74,12.4v65.19a97.12,97.12,0,0,0,13.32-1.76,61.58,61.58,0,0,0,18.72-7.7l-5,14.23-5.1,14.23H638.32ZM593,418c2.78-3,5-7.55,6.8-13.69a68.74,68.74,0,0,0,2.65-19.16q0-17.1-10.34-27.07t-26.55-8.48q-4.17,4.5-6.8,13.74a69.45,69.45,0,0,0-2.65,19.23q0,17.06,10.36,27T593,418Zm-13.72,20.84q-21.72,0-35.52-15.4T530,383.88q0-24.24,13.82-39.67t35.52-15.44q21.78,0,35.54,15.44t13.8,39.67q0,24.17-13.8,39.57T579.32,438.85ZM468.14,414.52V352.75a86.25,86.25,0,0,0-.74-12.4,51.67,51.67,0,0,0-2.48-10H530.3l-11.15,23.53c-2.15-1.23-10.56-3-15.61-3H492.37v23.57h27.45l-5.53,11.64-5.56,11.72a21,21,0,0,0-10.4-3h-6v19.72a87.73,87.73,0,0,0,.74,12.4,52.4,52.4,0,0,0,2.48,10H464.92a53.29,53.29,0,0,0,2.52-10A93.26,93.26,0,0,0,468.14,414.52Zm-76.24-92,5.44-8.61h24.08l-6.51,8.61Zm26.87,94.13q4.17-4.5,6.81-13.7a69.1,69.1,0,0,0,2.64-19.16q0-17.08-10.33-27.06t-26.55-8.49q-4.18,4.5-6.81,13.74a69.5,69.5,0,0,0-2.64,19.23q0,17.06,10.35,27T418.77,416.62Zm-13.72,20.83q-21.71,0-35.52-15.39t-13.81-39.58q0-24.24,13.81-39.66t35.52-15.44q21.78,0,35.54,15.44t13.8,39.66q0,24.18-13.8,39.58T405.05,437.45Zm-96.32-22.93V350.85H296.24a34.13,34.13,0,0,0-15,3.13l3.28-11.79,3.29-11.86h71.62l-2.71,11.44-2.7,11.46A30.54,30.54,0,0,0,342,350.85h-9v63.67a75.82,75.82,0,0,0,.8,11.86,56.69,56.69,0,0,0,2.78,10.56H305.15A56.74,56.74,0,0,0,308,426.38,77.43,77.43,0,0,0,308.73,414.52ZM273.15,356.4a36.51,36.51,0,0,0-8.15-6.31,15.82,15.82,0,0,0-7.4-1.88,8.13,8.13,0,0,0-6,2.26,7.59,7.59,0,0,0-2.32,5.72,13.22,13.22,0,0,0,1.64,6.6,29.23,29.23,0,0,0,5.87,6.67q10.2,9.21,14.85,17.26a32.23,32.23,0,0,1,4.63,16.46q0,15.06-8.65,24.67t-22.27,9.6a51,51,0,0,1-11.23-1.05,63.62,63.62,0,0,1-11.11-4.06V405.22a25.65,25.65,0,0,0,8.41,8.23,19.44,19.44,0,0,0,10.19,3.17,8.54,8.54,0,0,0,6.61-2.84,10.49,10.49,0,0,0,2.54-7.32,16.49,16.49,0,0,0-1.82-7.91,29.76,29.76,0,0,0-6.45-7.56q-9.94-8.92-14.44-16.48a28.91,28.91,0,0,1-4.52-15.11q0-14.1,8.33-23.07t21.42-8.95a50.56,50.56,0,0,1,10.41,1.18,43,43,0,0,1,9.41,3.05Zm-93.22,58.12V352.75a85.68,85.68,0,0,0-.74-12.33,53.06,53.06,0,0,0-2.48-10.09h30.67a51.67,51.67,0,0,0-2.48,10,86.25,86.25,0,0,0-.74,12.4v61.77a86.25,86.25,0,0,0,.74,12.4,51.67,51.67,0,0,0,2.48,10H176.71a53.29,53.29,0,0,0,2.52-10A93.26,93.26,0,0,0,179.93,414.52ZM117.47,378h.76a14.7,14.7,0,0,0,15.24-15.32,12.89,12.89,0,0,0-4.05-9.82,14.56,14.56,0,0,0-10.37-3.81h-1.58Zm-24.23,36.5V352.75a86.25,86.25,0,0,0-.74-12.4,51.67,51.67,0,0,0-2.48-10h31.85q16.95,0,26.15,8.26T157.23,362q0,14.52-10.21,23.09a29.5,29.5,0,0,1-8,4.91l14.66,24.5A123.17,123.17,0,0,0,162,427a93.29,93.29,0,0,0,9,9.95H145.92c-1.6,0-4.35-2.51-8.19-7.56A146.69,146.69,0,0,1,126,410.92l-8.51-16v19.6a86.25,86.25,0,0,0,.74,12.4,51.67,51.67,0,0,0,2.48,10H90a53.29,53.29,0,0,0,2.52-10A93.26,93.26,0,0,0,93.24,414.52Zm-16.11,16a80.42,80.42,0,0,1-15.78,6.55A59.58,59.58,0,0,1,46,438.85q-20.24,0-33.12-14.79T0,386.06q0-25.21,14.12-41.24t36.2-16.05a76.46,76.46,0,0,1,11.09.72c3.24.47,8,1.47,14.19,3v27.71a49.88,49.88,0,0,0-12.61-8,33.85,33.85,0,0,0-12.85-2.25c-7,0-12.8,3-17.26,9.16S26.15,373,26.15,382.58q0,16.21,6.49,25.71t17.5,9.51a28.56,28.56,0,0,0,14-3.44q6.25-3.42,12.94-11.46Z"
         id="path78" />
      <path
         class="cls-1"
         d="M156.5,285.48c166.11-47.93,318-143.33,266.21-274.11C455.63,75.17,494.07,150,531.49,225.28c15.48,31.13-21.8,60.2-60.9,60.2H156.5"
         id="path80" />
      <path
         class="cls-2"
         d="M337.55,8.5C391.3-3.11,402.75-4.81,419,16.09c11.93,26.73,10.63,79.63-11.09,112.39C388,91.79,357.43,45.19,337.55,8.5"
         id="path82" />
      <path
         class="cls-3"
         d="M581.78,196.54c-55.44,22.07-109.68,42.22-187,45.11-101.13,3.77-183.87-27.52-183.87-61.27,0-28,58.9-53.13,143.65-59.25-58.91,8.7-99.39,26.83-99.39,46.35,0,16.73,27.64,31.93,70.44,41.76,31.12,7.15,69.32,8.27,110.79,8,46.16-.3,106-13.21,145.38-20.71"
         id="path84" />
    </g>
  </g>
  <path
     style="fill:#ffffff;stroke:#0083c1;stroke-width:0.941267;stroke-opacity:1"
     d="m 382.15337,215.91173 c -2.32964,-0.18854 -9.74211,-0.79096 -16.47217,-1.33868 -12.00036,-0.97665 -29.81439,-3.30324 -32.34041,-4.2238 -0.74924,-0.27305 2.95294,-3.42467 8.94204,-7.61226 51.78762,-36.21001 81.60431,-76.02448 89.29456,-119.235756 2.25057,-12.645882 1.55806,-37.977986 -1.35435,-49.542292 -1.09808,-4.360085 -1.87526,-8.2911 -1.72711,-8.735588 0.31814,-0.954415 17.93101,33.05812 61.43471,118.637696 17.45789,34.34281 31.37638,62.77377 30.92997,63.1799 -0.86667,0.78848 -25.17621,4.71756 -44.58056,7.20543 -8.75304,1.12225 -21.76831,1.57249 -50.82841,1.75835 -21.48441,0.13739 -40.96864,0.0956 -43.29827,-0.093 z"
     id="path917" />
  <path
     style="fill:#ffffff;stroke:#0083c1;stroke-width:0.941267;stroke-opacity:1"
     d="m 161.42631,284.70043 c 0.51769,-0.20723 8.56552,-2.76014 17.88406,-5.67312 32.02526,-10.01111 67.49677,-23.96218 98.03249,-38.55651 l 14.66248,-7.00783 12.365,2.26705 c 28.9743,5.31228 56.8222,7.13946 91.61638,6.01123 41.44746,-1.34397 81.22101,-8.36681 123.90999,-21.87887 l 7.37789,-2.33527 3.39586,7.24758 c 2.98693,6.37481 3.40199,8.15437 3.44669,14.77771 0.0644,9.54097 -2.72385,15.97589 -10.41709,24.04144 -8.82797,9.25521 -17.95244,14.42134 -33.77164,19.12099 -6.54902,1.94562 -7.56528,1.95868 -168.01613,2.15992 -88.78499,0.11136 -161.00368,0.0329 -160.48598,-0.17432 z"
     id="path919" />
  <path
     style="fill:#ffffff;stroke:#0083c1;stroke-width:0.941267;stroke-opacity:1"
     d="m 349.96405,240.74779 c -1.7095,-0.37793 -4.80247,-0.66704 -6.87325,-0.64246 -2.07079,0.0246 -8.60699,-0.63509 -14.52491,-1.46595 -5.91791,-0.83085 -11.31843,-1.29628 -12.00115,-1.0343 -0.68272,0.26198 -1.24131,0.13934 -1.24131,-0.27254 0,-0.41187 -3.37332,-1.26526 -7.49625,-1.8964 -26.87481,-4.11407 -59.01021,-15.46694 -76.28163,-26.94896 -7.46126,-4.96023 -15.54571,-13.41036 -18.00741,-18.82192 -2.26519,-4.97957 -2.2229,-12.99511 0.0955,-18.10236 8.62784,-19.00642 46.28621,-36.13429 98.72136,-44.90069 20.1122,-3.36246 21.88591,-2.9299 5.32159,1.29782 -30.29761,7.73286 -51.70332,18.26979 -59.25639,29.16888 -3.45805,4.98996 -4.38525,13.19095 -2.01056,17.78309 5.41287,10.46735 20.53112,19.98813 44.16628,27.81392 19.04643,6.30642 35.53526,9.69532 60.86958,12.51035 22.00228,2.44479 93.45029,2.4285 113.89328,-0.026 8.0243,-0.96343 14.71584,-2.08328 14.87009,-2.48856 0.15424,-0.40528 1.03801,-0.53877 1.96392,-0.29664 1.98327,0.51864 29.08167,-3.83627 57.309,-9.20997 11.0111,-2.09621 20.5207,-3.64445 21.13246,-3.44053 1.39216,0.46405 -32.46042,13.06656 -52.04597,19.37546 -18.46514,5.94801 -44.75675,12.53967 -60.64293,15.20402 -6.73006,1.12873 -12.87183,2.2784 -13.64837,2.55482 -1.74826,0.62231 -6.87944,1.13902 -11.45418,1.15345 -1.89939,0.006 -3.71312,0.43109 -4.03054,0.94467 -0.31741,0.51358 -1.1537,0.71253 -1.85842,0.44209 -0.70473,-0.27042 -6.30346,0.0122 -12.44164,0.62814 -12.44964,1.24918 -59.69024,1.74007 -64.52815,0.67053 z"
     id="path921" />
  <path
     style="fill:#ffffff;stroke:#0083c1;stroke-width:0.941267;stroke-opacity:1"
     d="M 403.71248,119.7762 C 401.51966,115.76405 388.43416,93.632514 374.63359,70.59501 347.24388,24.872931 338.39765,9.556357 339.02045,8.9335547 c 0.22308,-0.2230737 7.95148,-1.9245989 17.17424,-3.7811674 34.77908,-7.0011322 45.58127,-5.96873605 56.99741,5.4474057 5.43776,5.43776 6.87891,8.270938 9.49329,18.662978 5.51382,21.917186 3.6277,53.956219 -4.50999,76.609879 -2.34909,6.5394 -9.32078,21.19837 -10.08177,21.19837 -0.21681,0 -2.18832,-3.28267 -4.38115,-7.29482 z"
     id="path923" />
  <path
     style="fill:#ffffff;stroke:#0083c1;stroke-width:0.941267;stroke-opacity:1"
     d="M 36.003592,437.26415 C 19.931977,433.60559 6.5546386,419.50234 2.387458,401.82386 c -1.91594789,-8.12804 -1.87084351,-24.9037 0.088154,-32.78714 3.6447099,-14.66713 13.610326,-27.99394 25.601296,-34.2361 7.5732,-3.9424 13.815844,-5.35724 23.637464,-5.35724 7.157855,0 21.418278,2.30237 22.908505,3.69862 0.403911,0.37844 0.615696,6.22003 0.470634,12.98132 l -0.263751,12.29325 -5.924443,-3.58397 c -7.738842,-4.68157 -16.521355,-6.40959 -23.755734,-4.67409 -13.58461,3.2589 -21.600658,20.45532 -18.897656,40.54019 2.408674,17.89785 10.633753,27.15411 24.172537,27.20308 7.751376,0.0281 13.161925,-2.01042 20.033826,-7.54786 l 5.78337,-4.66029 v 12.21679 12.21679 l -4.471017,2.26405 c -10.553368,5.34405 -25.032031,7.31662 -35.767051,4.87289 z"
     id="path925" />
  <path
     style="fill:#ffffff;stroke:#0083c1;stroke-width:0.941267;stroke-opacity:1"
     d="m 92.091403,431.80614 c 2.159946,-7.336 2.159946,-89.14384 0,-96.47984 l -1.454974,-4.94166 14.687071,0.007 c 27.1924,0.0132 36.69988,2.36463 44.2522,10.94452 4.63486,5.26547 6.8419,11.66501 6.89401,19.98987 0.0727,11.60882 -4.80612,20.74382 -13.93654,26.0946 -4.86884,2.85333 -5.64854,0.46639 6.88886,21.08901 4.87832,8.0243 11.38055,17.66052 14.44939,21.41382 l 5.57971,6.82418 H 157.32251 145.1939 l -3.903,-4.23425 c -4.97488,-5.39711 -10.81628,-14.43513 -17.53896,-27.13691 -2.91949,-5.51606 -5.69688,-10.26944 -6.17198,-10.56307 -1.91966,-1.18642 -0.75708,28.26761 1.53443,38.87512 l 0.66086,3.05911 H 105.20584 90.636429 Z m 34.410047,-55.55022 c 4.68994,-2.68878 7.15849,-7.30669 7.15397,-13.38289 -0.006,-8.1175 -4.33681,-12.8297 -13.07541,-14.22706 l -3.86388,-0.61786 v 15.18057 15.18057 l 3.05912,-0.0155 c 1.68251,-0.008 4.7093,-0.96155 6.7262,-2.11785 z"
     id="path927" />
  <path
     style="fill:#ffffff;stroke:#0083c1;stroke-width:0.941267;stroke-opacity:1"
     d="m 178.24884,434.15931 c 2.15242,-9.7775 2.60628,-21.15095 2.23817,-56.08726 -0.31689,-30.07576 -0.69022,-38.81433 -1.82618,-42.74575 l -1.42786,-4.94166 h 14.78451 14.7845 l -1.4651,4.94166 c -2.17772,7.34524 -2.17772,89.13459 0,96.47984 l 1.4651,4.94165 H 192.2405 177.67901 Z"
     id="path929" />
  <path
     style="fill:#ffffff;stroke:#0083c1;stroke-width:0.941267;stroke-opacity:1"
     d="m 234.84512,436.05987 c -1.0354,-0.25826 -4.10628,-1.29848 -6.82419,-2.31161 l -4.94165,-1.84206 v -12.71169 -12.71169 l 2.37526,2.82283 c 3.01377,3.58167 11.15813,7.67554 15.26973,7.67554 8.38723,0 12.28573,-6.5744 9.61049,-16.20702 -0.68738,-2.47501 -3.67238,-6.25175 -10.19331,-12.89697 -11.07948,-11.29063 -15.19259,-18.24397 -15.88353,-26.85154 -1.08242,-13.48476 5.80093,-25.57448 17.6467,-30.99414 5.50568,-2.51895 17.8524,-2.5044 25.4142,0.0299 l 5.17697,1.73508 0.26492,11.61026 0.26493,11.61027 -4.20333,-3.0186 c -7.73472,-5.55466 -16.32541,-5.32604 -19.10771,0.50851 -2.61859,5.49122 -0.683,9.48633 10.07808,20.80144 10.97186,11.53675 15.00432,18.67576 15.74235,27.87005 1.23739,15.4153 -7.14074,29.47196 -20.3357,34.11882 -3.932,1.38474 -16.04098,1.83839 -20.35421,0.76257 z"
     id="path931" />
  <path
     style="fill:#ffffff;stroke:#0083c1;stroke-width:0.941267;stroke-opacity:1"
     d="m 306.46328,434.62994 c 1.95672,-6.09971 2.22816,-11.73934 2.24882,-46.72399 l 0.0225,-38.01728 -10.58925,0.49925 c -5.82409,0.27459 -11.75407,0.95854 -13.17774,1.51989 -1.42366,0.56136 -2.58848,0.75062 -2.58848,0.42058 0,-0.33003 1.34416,-5.40239 2.98702,-11.2719 l 2.98702,-10.67185 h 35.13428 c 19.32386,0 35.13429,0.28792 35.13429,0.63982 0,0.3519 -1.10482,5.26036 -2.45515,10.90768 -2.29372,9.59275 -2.58769,10.22744 -4.47102,9.65298 -1.10872,-0.33818 -5.96743,-0.85862 -10.79712,-1.15653 l -8.78125,-0.54165 0.39561,38.48878 c 0.3225,31.37566 0.66844,39.40204 1.87187,43.43042 l 1.47626,4.94165 h -15.0385 -15.0385 z"
     id="path933" />
  <path
     style="fill:#ffffff;stroke:#0083c1;stroke-width:0.941267;stroke-opacity:1"
     d="m 390.99966,434.96944 c -7.75931,-2.22138 -12.98932,-5.44824 -19.41363,-11.978 -8.64707,-8.789 -13.22005,-18.8941 -14.75542,-32.60565 -1.73768,-15.51823 1.39926,-29.9552 8.99222,-41.3845 5.28273,-7.95182 10.29987,-12.34273 18.68371,-16.35163 26.6565,-12.74635 56.94772,0.88309 66.45311,29.90035 1.94894,5.94959 2.25936,8.70771 2.25936,20.07494 0,11.05292 -0.33161,14.1654 -2.05655,19.30307 -5.82666,17.35432 -17.83878,29.23398 -33.7507,33.37851 -7.22461,1.88178 -19.19523,1.729 -26.4121,-0.33709 z m 31.81061,-23.63585 c 4.05064,-8.07751 5.73147,-17.27911 5.29397,-28.98151 -0.48009,-12.84161 -3.22773,-19.60285 -10.76602,-26.49241 -5.69504,-5.20495 -11.24438,-7.46432 -20.12458,-8.19358 -6.11402,-0.50209 -6.11968,-0.50025 -8.21555,2.66686 -4.99947,7.55477 -8.47582,24.50765 -7.29648,35.58219 0.88679,8.32732 3.55245,14.98597 8.04052,20.08468 6.9037,7.84302 14.04358,11.0449 23.91342,10.72399 l 6.55861,-0.21325 z"
     id="path935" />
  <path
     style="fill:#ffffff;stroke:#0083c1;stroke-width:0.941267;stroke-opacity:1"
     d="m 393.44857,321.42941 c 0,-0.26611 0.95303,-1.95515 2.11785,-3.75342 l 2.11785,-3.26958 11.11544,-0.0116 c 11.9413,-0.0125 11.58874,-0.23454 7.82857,4.93 -1.86399,2.56018 -2.00103,2.58848 -12.53215,2.58848 -5.85616,0 -10.64756,-0.21772 -10.64756,-0.48383 z"
     id="path937" />
  <path
     style="fill:#ffffff;stroke:#0083c1;stroke-width:0.941267;stroke-opacity:1"
     d="m 569.99953,437.56203 c -16.90729,-2.80456 -31.57373,-16.99955 -37.36192,-36.16095 -2.09909,-6.9489 -2.37409,-25.69984 -0.48934,-33.36576 4.66365,-18.9686 19.39089,-34.12419 36.63997,-37.70568 7.58988,-1.57591 21.02898,-0.6619 27.71489,1.88493 22.70729,8.64977 35.80877,36.13358 30.5123,64.00764 -5.52596,29.08181 -28.87115,46.00842 -57.0159,41.33982 z m 27.01521,-25.28717 c 6.458,-12.78801 7.64063,-32.94223 2.58331,-44.02427 -3.00675,-6.58867 -8.79423,-12.73312 -15.07232,-16.00197 -3.8708,-2.01543 -6.034,-2.4609 -12.18466,-2.50924 l -7.47833,-0.0588 -2.1973,3.23935 c -4.40909,6.50001 -6.37771,15.3786 -6.37771,28.76373 0,11.21369 0.20464,12.67276 2.44834,17.45638 5.9457,12.67636 17.4099,19.98877 30.4893,19.44751 l 4.69964,-0.19449 z"
     id="path939" />
  <path
     style="fill:#ffffff;stroke:#0083c1;stroke-width:0.941267;stroke-opacity:1"
     d="m 466.97625,431.33551 c 0.97228,-4.13174 1.27179,-15.43399 1.26587,-47.76929 -0.007,-38.97466 -0.26788,-44.93435 -2.23412,-51.06372 l -0.67938,-2.11786 h 32.0665 c 17.63658,0 32.0665,0.15971 32.0665,0.35491 0,0.19519 -2.37423,5.29242 -5.27608,11.32717 -4.34262,9.03103 -5.57549,10.87724 -6.96843,10.43514 -3.76566,-1.19517 -13.06668,-2.34002 -19.05261,-2.34516 l -6.35355,-0.005 v 12.2113 12.21131 l 13.54056,0.26048 13.54055,0.26048 -5.30447,10.88552 -5.30447,10.88552 -3.29443,-1.18441 c -1.81194,-0.65142 -5.51818,-1.20832 -8.23609,-1.23754 l -4.94165,-0.0531 0.005,13.41305 c 0.005,12.32428 0.65901,19.60524 2.36734,26.35547 l 0.65509,2.58848 h -14.56811 -14.5681 l 1.27363,-5.41228 z"
     id="path941" />
  <path
     style="fill:#ffffff;stroke:#0083c1;stroke-width:0.941267;stroke-opacity:1"
     d="m 640.38437,431.80614 c 2.16883,-7.34064 2.16883,-89.1392 0,-96.47984 l -1.46003,-4.94166 h 14.83026 14.83027 l -1.48664,4.47102 c -1.23177,3.70451 -1.55257,11.23309 -1.8712,43.91385 l -0.38456,39.44284 7.16252,-0.60545 c 4.60255,-0.38906 10.18236,-1.73976 15.61169,-3.77909 4.64704,-1.7455 8.45886,-2.91488 8.47072,-2.59861 0.0118,0.31626 -1.97607,6.18733 -4.4176,13.04681 l -4.43916,12.47178 h -24.15315 -24.15315 z"
     id="path943" />
  <path
     style="fill:#ffffff;stroke:#0083c1;stroke-width:0.941267;stroke-opacity:1"
     d="m 707.8208,434.15931 c 1.88448,-7.34816 2.325,-17.07637 2.31228,-51.06372 -0.0106,-28.27406 -0.33981,-38.98379 -1.37445,-44.71018 -0.7483,-4.14157 -1.36888,-7.63602 -1.37906,-7.76545 -0.0102,-0.12942 6.4912,-0.23532 14.44754,-0.23532 h 14.46606 l -1.27362,5.41229 c -1.83332,7.79071 -1.83332,87.74787 0,95.53858 l 1.27362,5.41228 h -14.5681 -14.56811 z"
     id="path945" />
  <path
     style="fill:#ffffff;stroke:#0083c1;stroke-width:0.941267;stroke-opacity:1"
     d="m 77.65356,471.10403 v -10.82457 h 2.823801 2.8238 v 10.82457 10.82457 h -2.8238 -2.823801 z"
     id="path947" />
  <path
     style="fill:#ffffff;stroke:#0083c1;stroke-width:0.941267;stroke-opacity:1"
     d="m 23.060086,471.10403 v -10.82457 h 6.073945 c 6.466146,0 10.422197,1.24342 11.309053,3.55453 0.903844,2.35538 -0.379463,4.7362 -3.071772,5.6988 l -2.545391,0.91008 3.064791,1.13059 c 4.368237,1.61142 5.136718,5.23431 1.731582,8.16328 -2.174549,1.87047 -3.575602,2.19186 -9.555195,2.19186 h -7.007013 z m 13.064806,6.32925 c 1.443496,-2.6972 -0.439025,-4.91735 -4.169543,-4.91735 -3.084102,0 -3.247662,0.16592 -3.247662,3.29443 0,3.13119 0.161609,3.29444 3.261316,3.29444 2.160738,0 3.563203,-0.56408 4.155889,-1.67152 z m -0.357704,-11.50622 c 0,-2.03977 -0.470098,-2.39207 -3.52975,-2.6453 -3.387187,-0.28034 -3.529751,-0.1735 -3.529751,2.6453 0,2.8188 0.142564,2.92564 3.529751,2.64531 3.059652,-0.25323 3.52975,-0.60554 3.52975,-2.64531 z"
     id="path949" />
  <path
     style="fill:#ffffff;stroke:#0083c1;stroke-width:0.941267;stroke-opacity:1"
     d=""
     id="path951" />
  <path
     style="fill:#ffffff;stroke:#0083c1;stroke-width:0.941267;stroke-opacity:1"
     d="m 129.6247,482.20115 c -1.18343,-0.2268 -3.88801,-2.06407 -6.01016,-4.08283 -3.57809,-3.40375 -3.82082,-3.95116 -3.34036,-7.53329 1.07692,-8.02904 10.1642,-12.82024 19.53158,-10.29787 9.27741,2.49815 13.04777,10.73144 7.78081,16.99087 -4.07743,4.84576 -9.95678,6.45721 -17.96187,4.92312 z m 12.54842,-5.40673 c 3.80875,-3.80875 3.0497,-9.94995 -1.522,-12.31407 -4.90233,-2.53509 -12.94355,-0.91617 -14.40826,2.90078 -1.25653,3.27447 -0.54794,7.13965 1.72569,9.41329 1.8479,1.84789 3.26961,2.31038 7.10228,2.31038 3.83268,0 5.25439,-0.46249 7.10229,-2.31038 z"
     id="path953" />
  <path
     style="fill:#ffffff;stroke:#0083c1;stroke-width:0.941267;stroke-opacity:1"
     d="m 188.72304,482.07599 c -1.29424,-0.3866 -2.35316,-1.31916 -2.35316,-2.07236 0,-1.53286 0.69929,-1.60856 4.54042,-0.49156 3.4515,1.0037 7.22541,-0.67958 7.22541,-3.22276 0,-1.4021 -1.32276,-2.50492 -4.94165,-4.11998 -2.71791,-1.21297 -5.73872,-3.10284 -6.71293,-4.19971 -1.67513,-1.88608 -1.68523,-2.12563 -0.18609,-4.41362 2.56481,-3.91438 8.04144,-5.25781 13.2936,-3.26094 2.04131,0.77611 2.3061,1.21068 1.4017,2.30042 -0.86105,1.03751 -1.61899,1.11395 -3.32733,0.33557 -3.0186,-1.37536 -7.05743,-0.25516 -7.05743,1.95743 0,2.12814 1.33943,3.24755 5.6071,4.68603 3.90584,1.31652 7.57063,4.563 7.57063,6.70649 0,4.33945 -8.71129,7.69144 -15.06027,5.79499 z"
     id="path955" />
  <path
     style="fill:#ffffff;stroke:#0083c1;stroke-width:0.941267;stroke-opacity:1"
     d="m 241.46846,481.82497 c -3.13203,-1.25023 -3.3051,-1.51826 -1.99768,-3.0936 0.98021,-1.18108 1.48356,-1.15661 3.82269,0.18586 2.07367,1.19012 3.30736,1.33029 5.35883,0.60883 4.31328,-1.5169 3.47625,-4.25961 -2.13939,-7.01013 -6.39536,-3.13242 -7.90273,-4.50358 -7.90273,-7.18859 0,-4.53177 8.82103,-7.50496 14.53799,-4.90014 1.75398,0.79916 2.13194,1.40007 1.4201,2.25778 -0.73479,0.88537 -1.62988,0.9197 -3.69136,0.14158 -2.00463,-0.75666 -3.3586,-0.73686 -5.14088,0.0752 -4.22528,1.92516 -3.07581,3.63107 5.11062,7.58463 4.51735,2.18161 5.21435,2.88721 5.47032,5.53782 0.24863,2.57455 -0.18187,3.3274 -2.8238,4.93813 -3.32219,2.02548 -8.22963,2.37753 -12.02471,0.86262 z"
     id="path957" />
  <path
     style="fill:#ffffff;stroke:#0083c1;stroke-width:0.941267;stroke-opacity:1"
     d="m 293.20366,471.10403 v -10.82457 h 8.00076 c 6.48429,0 8.00077,0.26762 8.00077,1.4119 0,1.09815 -1.25502,1.4119 -5.6476,1.4119 h -5.6476 v 2.8238 2.8238 h 5.6476 c 5.02009,0 5.6476,0.20917 5.6476,1.88254 0,1.67336 -0.62751,1.88253 -5.6476,1.88253 h -5.6476 v 3.29443 3.29444 h 5.6476 c 4.39258,0 5.6476,0.31375 5.6476,1.4119 0,1.14428 -1.51648,1.4119 -8.00077,1.4119 h -8.00076 z"
     id="path959" />
  <path
     style="fill:#ffffff;stroke:#0083c1;stroke-width:0.941267;stroke-opacity:1"
     d="m 352.8635,481.06852 c -5.00588,-2.27325 -6.9489,-5.14405 -6.9489,-10.26691 0,-3.39009 0.51494,-4.60029 2.90909,-6.83675 5.32003,-4.96965 15.33045,-5.85652 20.61644,-1.8265 2.02201,1.54158 2.12996,1.87266 0.7795,2.39088 -0.86214,0.33084 -2.41992,0.14533 -3.46173,-0.41223 -3.41001,-1.82498 -10.12684,-1.23528 -12.87729,1.13055 -3.60228,3.09855 -3.65065,8.57278 -0.10272,11.62458 4.35713,3.74785 14.72711,2.62147 14.72711,-1.59964 0,-0.48072 -1.69428,-0.87404 -3.76507,-0.87404 -3.13755,0 -3.76506,-0.31375 -3.76506,-1.88253 0,-1.68945 0.62751,-1.88253 6.11823,-1.88253 6.10096,0 6.11823,0.008 6.11823,2.68635 0,3.07042 -3.41321,7.22253 -7.08471,8.61844 -3.7421,1.42274 -8.9699,1.07995 -13.26312,-0.86967 z"
     id="path961" />
  <path
     style="fill:#ffffff;stroke:#0083c1;stroke-width:0.941267;stroke-opacity:1"
     d="m 415.56834,482.20512 c -0.77655,-0.28387 -2.36493,-1.38319 -3.52975,-2.44294 -1.90715,-1.73511 -2.11785,-2.80011 -2.11785,-10.70476 0,-8.73564 0.0113,-8.77796 2.35317,-8.77796 2.30833,0 2.35316,0.13947 2.35316,7.3207 0,9.37743 1.2882,11.50464 6.96699,11.50464 6.01658,0 7.15201,-1.7676 7.15201,-11.134 v -7.69134 h 2.82381 2.8238 l -0.005,6.35355 c -0.008,9.29358 -1.25704,12.90424 -5.09546,14.7257 -3.05576,1.45005 -10.7716,1.92589 -13.7246,0.84641 z"
     id="path963" />
  <path
     style="fill:#ffffff;stroke:#0083c1;stroke-width:0.941267;stroke-opacity:1"
     d="m 476.93418,466.3977 c 0.0192,-1.55309 0.23014,-2.07449 0.46879,-1.15867 0.23865,0.91582 0.22296,2.18653 -0.0349,2.8238 -0.25783,0.63727 -0.45309,-0.11204 -0.43391,-1.66513 z"
     id="path965" />
  <path
     style="fill:#ffffff;stroke:#0083c1;stroke-width:0.941267;stroke-opacity:1"
     d="m 472.04435,471.10403 v -10.82457 h 6.85006 c 8.16799,0 11.03401,1.49217 11.03401,5.74476 0,2.14099 -0.67409,3.19778 -2.81785,4.41764 -1.54982,0.88189 -2.82053,1.8602 -2.8238,2.17403 -0.003,0.31383 1.49594,2.53757 3.3316,4.94165 l 3.33755,4.37106 H 488.129 c -2.36098,0 -3.4153,-0.8474 -6.39667,-5.14125 -1.96336,-2.82769 -3.88743,-5.15733 -4.2757,-5.17697 -0.38827,-0.0196 -0.70595,2.29392 -0.70595,5.14125 0,4.89459 -0.12835,5.17697 -2.35317,5.17697 h -2.35316 z m 12.30195,-2.9027 c 2.00703,-2.41833 -0.0891,-4.62743 -4.39088,-4.62743 -3.74855,0 -5.00501,1.58075 -3.78452,4.76131 0.71027,1.85094 6.6083,1.75436 8.1754,-0.13388 z"
     id="path967" />
  <path
     style="fill:#ffffff;stroke:#0083c1;stroke-width:0.941267;stroke-opacity:1"
     d="m 534.89076,477.48137 c 1.69179,-0.20949 4.23321,-0.20517 5.6476,0.01 1.4144,0.21477 0.0302,0.38618 -3.07597,0.38089 -3.10618,-0.005 -4.26341,-0.181 -2.57163,-0.39049 z"
     id="path969" />
  <path
     style="fill:#ffffff;stroke:#0083c1;stroke-width:0.941267;stroke-opacity:1"
     d="m 528.85117,471.33935 c 4.89703,-10.45551 5.00309,-10.59292 8.39736,-10.87929 l 3.43769,-0.29003 5.21227,10.39297 c 2.86675,5.71614 5.21227,10.61182 5.21227,10.87929 0,0.26747 -1.27979,0.48631 -2.84398,0.48631 -2.10496,0 -3.11712,-0.59947 -3.89509,-2.30694 -1.9917,-4.37129 -12.17093,-4.36802 -14.1632,0.005 -0.74902,1.6439 -1.80236,2.30239 -3.68301,2.30239 h -2.63397 z m 12.33389,1.043 c -0.35194,-1.10887 -1.41524,-3.74792 -2.36289,-5.86455 -1.4776,-3.30033 -1.81746,-3.58294 -2.3863,-1.98427 -0.36482,1.02529 -1.23613,3.2925 -1.93625,5.03824 -1.8457,4.60228 -1.705,4.82669 3.0262,4.82669 3.96573,0 4.24951,-0.15634 3.65924,-2.01611 z"
     id="path971" />
  <path
     style="fill:#ffffff;stroke:#0083c1;stroke-width:0.941267;stroke-opacity:1"
     d="m 585.93763,471.10403 v -10.82457 h 3.16954 c 2.73454,0 4.15558,1.03207 10.35394,7.51982 3.95141,4.1359 7.18439,7.94803 7.18439,8.4714 0,0.52337 0.31768,0.95256 0.70595,0.95375 0.38827,0.001 0.57,-3.81095 0.40383,-8.47141 l -0.30212,-8.47356 h 2.89061 2.8906 v 10.82457 10.82457 h -3.16955 c -2.73453,0 -4.15557,-1.03207 -10.35393,-7.51982 -3.95142,-4.1359 -7.18439,-7.94803 -7.18439,-8.4714 0,-0.52337 -0.34224,-0.95158 -0.76052,-0.95158 -0.41829,0 -0.57826,3.81213 -0.3555,8.4714 l 0.40502,8.4714 h -2.93893 -2.93894 z"
     id="path973" />
  <path
     style="fill:#ffffff;stroke:#0083c1;stroke-width:0.941267;stroke-opacity:1"
     d="m 657.11315,481.17197 c -12.49418,-5.25082 -9.36636,-19.31849 4.76652,-21.43784 5.80907,-0.87113 11.0519,0.57166 11.42305,3.14353 0.29216,2.02445 0.23066,2.03629 -3.17859,0.61181 -3.70455,-1.54786 -9.11682,-1.15926 -11.79052,0.84656 -4.35962,3.27059 -4.56527,10.70707 -0.37209,13.45455 2.62308,1.71871 10.68036,1.95229 13.59199,0.39404 1.64595,-0.88089 1.92193,-0.75016 1.92193,0.91036 0,1.17532 -0.88109,2.27394 -2.23719,2.78953 -3.05138,1.16013 -10.57183,0.78076 -14.1251,-0.71254 z"
     id="path975" />
  <path
     style="fill:#ffffff;stroke:#0083c1;stroke-width:0.941267;stroke-opacity:1"
     d="m 718.43779,477.48137 c 1.69178,-0.20949 4.2332,-0.20517 5.6476,0.01 1.41439,0.21477 0.0302,0.38618 -3.07598,0.38089 -3.10618,-0.005 -4.26341,-0.181 -2.57162,-0.39049 z"
     id="path977" />
  <path
     style="fill:#ffffff;stroke:#0083c1;stroke-width:0.941267;stroke-opacity:1"
     d="m 708.93041,478.39885 c 0.81031,-1.94136 3.13541,-6.83697 5.16687,-10.87913 3.67517,-7.31275 3.71069,-7.34793 7.12863,-7.0595 3.39092,0.28615 3.49878,0.42593 8.39472,10.87913 l 4.95967,10.58925 h -2.80524 c -2.06384,0 -3.08304,-0.6097 -3.85635,-2.30694 -1.99169,-4.37129 -12.17092,-4.36802 -14.1632,0.005 -0.74773,1.64108 -1.80292,2.30239 -3.67372,2.30239 h -2.62468 z m 16.31471,-4.31112 c 0,-0.17091 -1.01465,-2.80469 -2.25478,-5.85285 l -2.25478,-5.54212 -1.53763,3.68008 c -3.22152,7.71018 -3.15433,8.02562 1.70944,8.02562 2.38576,0 4.33775,-0.13983 4.33775,-0.31073 z"
     id="path979" />
  <path
     style="fill:#ffffff;stroke:#0083c1;stroke-width:0.622022;stroke-opacity:1"
     d=""
     id="path981" />
  <path
     style="fill:#ffffff;stroke:#0083c1;stroke-width:0.622022;stroke-opacity:1"
     d=""
     id="path983" />
  <path
     style="fill:#ffffff;stroke:#0083c1;stroke-width:0.622022;stroke-opacity:1"
     d=""
     id="path985" />
  <path
     style="fill:#ffffff;stroke:#0083c1;stroke-width:0.622022;stroke-opacity:1"
     d=""
     id="path987" />
  <path
     style="fill:#ffffff;stroke:#0083c1;stroke-width:0.622022;stroke-opacity:1"
     d=""
     id="path989" />
  <path
     style="fill:#ffffff;stroke:#0083c1;stroke-width:0.622022;stroke-opacity:1"
     d="m 661.94388,489.90528 c -3.57207,-0.37365 -2.77139,-1.41294 1.08853,-1.41294 3.00644,0 3.42113,-0.1508 3.42113,-1.24405 0,-0.96759 -0.41469,-1.24404 -1.86607,-1.24404 -1.45139,0 -1.86607,-0.27645 -1.86607,-1.24404 0,-0.69114 0.41468,-1.24405 0.93304,-1.24405 0.51316,0 0.93303,0.27991 0.93303,0.62202 0,0.34212 0.67978,0.62203 1.51062,0.62203 1.40949,0 3.47757,1.4224 3.45603,2.37701 -0.0292,1.29434 -3.41489,3.46926 -4.85164,3.11662 -0.23431,-0.0575 -1.47568,-0.21436 -2.7586,-0.34856 z"
     id="path991" />
  <path
     style="fill:#ffffff;stroke:#0083c1;stroke-width:0.622022;stroke-opacity:1"
     d=""
     id="path993" />
  <path
     style="fill:#ffffff;stroke:#0083c1;stroke-width:0.622022;stroke-opacity:1"
     d=""
     id="path995" />
  <path
     style="fill:#ffffff;stroke:#0083c1;stroke-width:0.622022;stroke-opacity:1"
     d="m 326.05587,125.52136 c 0.42978,-0.17327 0.6471,-0.53235 0.48294,-0.79797 -0.2727,-0.44123 10.72694,-1.97431 13.21997,-1.84254 1.21969,0.0645 -12.12832,2.98855 -13.55128,2.96861 -0.63377,-0.009 -0.6824,-0.11411 -0.15163,-0.3281 z"
     id="path997" />
  <path
     style="fill:#ffffff;stroke:#0083c1;stroke-width:0.622022;stroke-opacity:1"
     d=""
     id="path999" />
  <path
     style="fill:#ffffff;stroke:#0083c1;stroke-width:0.622022;stroke-opacity:1"
     d=""
     id="path1001" />
  <path
     style="fill:#ffffff;stroke:#0083c1;stroke-width:0.622022;stroke-opacity:1"
     d="m 427.03592,22.586133 c -1.04603,-3.000645 -0.76593,-3.575259 0.56117,-1.151224 1.34737,2.461052 1.48988,3.11011 0.68287,3.11011 -0.30864,0 -0.86846,-0.881499 -1.24404,-1.958886 z"
     id="path1003" />
  <path
     style="fill:#ffffff;stroke:#0083c1;stroke-width:0.622022;stroke-opacity:1"
     d=""
     id="path1005" />
</svg>
