<svg xmlns="http://www.w3.org/2000/svg" viewBox="0 0 737.01 490.4"><defs><style>.cls-1{fill:#003b4d;}.cls-1,.cls-2,.cls-3{fill-rule:evenodd;}.cls-2{fill:#006580;}.cls-3{fill:#0083c1;}</style></defs><title>Logo-Cristófoli</title><g id="Camada_2" data-name="Camada 2"><g id="Camada_1-2" data-name="Camada 1"><path class="cls-1" d="M706.22,482.76l11.12-23.25h7.15l11.28,23.25h-7.11l-2.37-4.94H715l-2,4.94Zm18.61-8.85-3.28-7.51a11.68,11.68,0,0,1-.36-1.14c-.14-.54-.3-1.2-.45-2-.18.75-.34,1.43-.5,2s-.28,1-.36,1.2l-3.16,7.41ZM659.1,489.72v-2c1.06.23,2,.39,2.94.51a17.17,17.17,0,0,0,2.21.18,3,3,0,0,0,1.51-.3,1,1,0,0,0,.49-.9.85.85,0,0,0-.54-.83,5.15,5.15,0,0,0-1.87-.24h-.64l-.5,0v-3.39h2v1.43h.3a6.42,6.42,0,0,1,3.5.77,2.79,2.79,0,0,1-.14,4.66,8.07,8.07,0,0,1-4,.78,20.83,20.83,0,0,1-2.38-.17Q660.66,490.05,659.1,489.72Zm14.51-24.16a13.5,13.5,0,0,0-8.18-2.61,11.62,11.62,0,0,0-7.45,2.22,7.28,7.28,0,0,0-2.77,6,7.19,7.19,0,0,0,2.57,5.82,10.64,10.64,0,0,0,7,2.16,15.82,15.82,0,0,0,4.71-.68,13.74,13.74,0,0,0,4-2l0,5.09a18.85,18.85,0,0,1-4.18,1.4,22.08,22.08,0,0,1-4.6.46q-7,0-11.48-3.45a10.81,10.81,0,0,1,0-17.53q4.5-3.45,11.59-3.45a26.4,26.4,0,0,1,4.59.39,24.32,24.32,0,0,1,4.37,1.23Zm-87.93,17.2V459.51h6.49L605.11,473a10.87,10.87,0,0,1,1.23,1.61c.44.7.91,1.52,1.39,2.46a16.44,16.44,0,0,1-.32-2.05c-.07-.68-.1-1.52-.1-2.54v-13h6v23.25h-6.13L593.84,469a10,10,0,0,1-1.21-1.61c-.44-.69-.91-1.52-1.4-2.48a17,17,0,0,1,.32,2c.06.69.1,1.54.1,2.58v13.28Zm-62.9,0,11.12-23.25h7.15l11.29,23.25h-7.11l-2.38-4.94H531.53l-2,4.94Zm18.61-8.85-3.27-7.51a9.4,9.4,0,0,1-.36-1.14c-.15-.54-.3-1.2-.46-2-.18.75-.34,1.43-.5,2s-.28,1-.36,1.2l-3.16,7.41Zm-63.94-4.49h.94q3.8,0,5-.66a2.4,2.4,0,0,0,1.22-2.3,2.58,2.58,0,0,0-1.31-2.44,11.38,11.38,0,0,0-4.92-.72h-.94Zm14.9,13.34h-7.21l-7.69-10.86v10.86H471.2V459.51h8.95c3.55,0,6.21.54,8,1.64a5.75,5.75,0,0,1,.84,9.05,7.73,7.73,0,0,1-4.69,2Zm-57.89-23.25V474q0,4.74-3.13,7.07c-2.1,1.56-5.24,2.34-9.45,2.34s-7.45-.78-9.54-2.34-3.14-3.91-3.14-7.07V459.51h6.21V473.2a5.59,5.59,0,0,0,1.59,4.33,6.92,6.92,0,0,0,4.78,1.45,7.09,7.09,0,0,0,4.84-1.46,5.51,5.51,0,0,0,1.63-4.32V459.51Zm-73.73,11h13.32a2.92,2.92,0,0,1,.06.44v.73a10.65,10.65,0,0,1-3.75,8.47,14.33,14.33,0,0,1-9.71,3.24,17.66,17.66,0,0,1-11.22-3.45,10.86,10.86,0,0,1,0-17.5,19.45,19.45,0,0,1,17.76-2.26,15.61,15.61,0,0,1,5.31,3.56l-4.22,2.48A10,10,0,0,0,365,464a10.89,10.89,0,0,0-4-.69,10.59,10.59,0,0,0-6.93,2.14,7.57,7.57,0,0,0,0,11.43,10.24,10.24,0,0,0,6.8,2.17,9.64,9.64,0,0,0,5-1.15,3.44,3.44,0,0,0,1.91-3v-.25h-7Zm-68.14,12.26V459.51H309.8v4.19h-11v4.79h11v4.22h-11v5.83h11v4.22Zm-55-3,3.48-3.12a4.58,4.58,0,0,0,2.12,2,7,7,0,0,0,3.27.74,6.49,6.49,0,0,0,3.48-.82,2.54,2.54,0,0,0,1.27-2.23q0-1.65-4.25-3.28c-.92-.36-1.64-.64-2.18-.87a16.33,16.33,0,0,1-5.31-3.1,5,5,0,0,1-1.48-3.61,5.49,5.49,0,0,1,2.87-4.73,13.52,13.52,0,0,1,7.43-1.85,12.7,12.7,0,0,1,4.59.74,9,9,0,0,1,3.4,2.31l-3.69,2.81a4.15,4.15,0,0,0-1.75-1.52,6.28,6.28,0,0,0-2.62-.5,5.4,5.4,0,0,0-3,.74,2.2,2.2,0,0,0-1.14,1.91q0,1.86,4.51,3.37l1.38.48a16,16,0,0,1,5.5,3,5.24,5.24,0,0,1,1.78,3.88,6.05,6.05,0,0,1-2.8,5.22,13.08,13.08,0,0,1-7.54,1.94,16.18,16.18,0,0,1-5.76-.92A7.3,7.3,0,0,1,237.54,479.8Zm-53.17,0,3.48-3.12a4.58,4.58,0,0,0,2.12,2,7,7,0,0,0,3.27.74,6.49,6.49,0,0,0,3.48-.82,2.54,2.54,0,0,0,1.27-2.23q0-1.65-4.25-3.28c-.92-.36-1.64-.64-2.18-.87a16.33,16.33,0,0,1-5.31-3.1,5,5,0,0,1-1.48-3.61,5.49,5.49,0,0,1,2.87-4.73,13.52,13.52,0,0,1,7.43-1.85,12.7,12.7,0,0,1,4.59.74,9,9,0,0,1,3.4,2.31l-3.69,2.81a4.15,4.15,0,0,0-1.75-1.52,6.28,6.28,0,0,0-2.62-.5,5.46,5.46,0,0,0-3,.74,2.21,2.21,0,0,0-1.13,1.91q0,1.86,4.51,3.37l1.38.48a16.06,16.06,0,0,1,5.5,3,5.24,5.24,0,0,1,1.78,3.88,6,6,0,0,1-2.81,5.22,13,13,0,0,1-7.53,1.94,16.18,16.18,0,0,1-5.76-.92A7.3,7.3,0,0,1,184.37,479.8ZM135.13,479a9.71,9.71,0,0,0,6.56-2.22,7,7,0,0,0,2.58-5.55,7.08,7.08,0,0,0-2.61-5.56,10.7,10.7,0,0,0-13.13,0,7.27,7.27,0,0,0,0,11.13A9.85,9.85,0,0,0,135.13,479Zm15.57-7.77a10.08,10.08,0,0,1-1.16,4.72,12.09,12.09,0,0,1-3.37,3.91,17.11,17.11,0,0,1-5.13,2.65,19.47,19.47,0,0,1-11.16.2,17.65,17.65,0,0,1-4.7-2.08,12.88,12.88,0,0,1-4.23-4.17,10.12,10.12,0,0,1-.3-9.94,12.11,12.11,0,0,1,3.39-3.92,16.64,16.64,0,0,1,5.1-2.63,19.54,19.54,0,0,1,6-.94,19.2,19.2,0,0,1,5.93.94,16.81,16.81,0,0,1,5.11,2.63,12.08,12.08,0,0,1,3.37,3.93A10,10,0,0,1,150.7,471.18ZM77.57,482.76V459.51h6.25v23.25Zm-54.8,0V459.51h5.47a51.27,51.27,0,0,1,6.22.26,13.35,13.35,0,0,1,3.41.87,6.62,6.62,0,0,1,2.63,2,4.76,4.76,0,0,1,.92,2.88,4,4,0,0,1-1.54,3.31,9,9,0,0,1-4.59,1.66,10.57,10.57,0,0,1,5.34,1.83,4.51,4.51,0,0,1,1.81,3.76,5.21,5.21,0,0,1-1,3.14,6.74,6.74,0,0,1-2.85,2.2,14.62,14.62,0,0,1-3.8,1,59.91,59.91,0,0,1-7.21.3H22.77Zm6.25-14h1.39a9.15,9.15,0,0,0,4-.63A2.25,2.25,0,0,0,35.61,466,2.2,2.2,0,0,0,34.48,464a9,9,0,0,0-3.94-.61H29Zm0,10.09h2.45a6.38,6.38,0,0,0,3.58-.82,2.7,2.7,0,0,0,1.22-2.39,2.5,2.5,0,0,0-1.21-2.25,6.5,6.5,0,0,0-3.51-.78H29Z"/><path class="cls-1" d="M709.56,414.52V352.75a85.68,85.68,0,0,0-.74-12.33,52.35,52.35,0,0,0-2.49-10.09H737a51.67,51.67,0,0,0-2.48,10,86.08,86.08,0,0,0-.75,12.4v61.77a86.08,86.08,0,0,0,.75,12.4,51.67,51.67,0,0,0,2.48,10H706.33a52.57,52.57,0,0,0,2.53-10,93.26,93.26,0,0,0,.7-12.4m-71.24,22.42a51.67,51.67,0,0,0,2.48-10,84.66,84.66,0,0,0,.75-12.4V352.75a84.66,84.66,0,0,0-.75-12.4,51.67,51.67,0,0,0-2.48-10H669a51.7,51.7,0,0,0-2.49,10,86.25,86.25,0,0,0-.74,12.4v65.19a97.12,97.12,0,0,0,13.32-1.76,61.58,61.58,0,0,0,18.72-7.7l-5,14.23-5.1,14.23H638.32ZM593,418c2.78-3,5-7.55,6.8-13.69a68.74,68.74,0,0,0,2.65-19.16q0-17.1-10.34-27.07t-26.55-8.48q-4.17,4.5-6.8,13.74a69.45,69.45,0,0,0-2.65,19.23q0,17.06,10.36,27T593,418Zm-13.72,20.84q-21.72,0-35.52-15.4T530,383.88q0-24.24,13.82-39.67t35.52-15.44q21.78,0,35.54,15.44t13.8,39.67q0,24.17-13.8,39.57T579.32,438.85ZM468.14,414.52V352.75a86.25,86.25,0,0,0-.74-12.4,51.67,51.67,0,0,0-2.48-10H530.3l-11.15,23.53c-2.15-1.23-10.56-3-15.61-3H492.37v23.57h27.45l-5.53,11.64-5.56,11.72a21,21,0,0,0-10.4-3h-6v19.72a87.73,87.73,0,0,0,.74,12.4,52.4,52.4,0,0,0,2.48,10H464.92a53.29,53.29,0,0,0,2.52-10A93.26,93.26,0,0,0,468.14,414.52Zm-76.24-92,5.44-8.61h24.08l-6.51,8.61Zm26.87,94.13q4.17-4.5,6.81-13.7a69.1,69.1,0,0,0,2.64-19.16q0-17.08-10.33-27.06t-26.55-8.49q-4.18,4.5-6.81,13.74a69.5,69.5,0,0,0-2.64,19.23q0,17.06,10.35,27T418.77,416.62Zm-13.72,20.83q-21.71,0-35.52-15.39t-13.81-39.58q0-24.24,13.81-39.66t35.52-15.44q21.78,0,35.54,15.44t13.8,39.66q0,24.18-13.8,39.58T405.05,437.45Zm-96.32-22.93V350.85H296.24a34.13,34.13,0,0,0-15,3.13l3.28-11.79,3.29-11.86h71.62l-2.71,11.44-2.7,11.46A30.54,30.54,0,0,0,342,350.85h-9v63.67a75.82,75.82,0,0,0,.8,11.86,56.69,56.69,0,0,0,2.78,10.56H305.15A56.74,56.74,0,0,0,308,426.38,77.43,77.43,0,0,0,308.73,414.52ZM273.15,356.4a36.51,36.51,0,0,0-8.15-6.31,15.82,15.82,0,0,0-7.4-1.88,8.13,8.13,0,0,0-6,2.26,7.59,7.59,0,0,0-2.32,5.72,13.22,13.22,0,0,0,1.64,6.6,29.23,29.23,0,0,0,5.87,6.67q10.2,9.21,14.85,17.26a32.23,32.23,0,0,1,4.63,16.46q0,15.06-8.65,24.67t-22.27,9.6a51,51,0,0,1-11.23-1.05,63.62,63.62,0,0,1-11.11-4.06V405.22a25.65,25.65,0,0,0,8.41,8.23,19.44,19.44,0,0,0,10.19,3.17,8.54,8.54,0,0,0,6.61-2.84,10.49,10.49,0,0,0,2.54-7.32,16.49,16.49,0,0,0-1.82-7.91,29.76,29.76,0,0,0-6.45-7.56q-9.94-8.92-14.44-16.48a28.91,28.91,0,0,1-4.52-15.11q0-14.1,8.33-23.07t21.42-8.95a50.56,50.56,0,0,1,10.41,1.18,43,43,0,0,1,9.41,3.05Zm-93.22,58.12V352.75a85.68,85.68,0,0,0-.74-12.33,53.06,53.06,0,0,0-2.48-10.09h30.67a51.67,51.67,0,0,0-2.48,10,86.25,86.25,0,0,0-.74,12.4v61.77a86.25,86.25,0,0,0,.74,12.4,51.67,51.67,0,0,0,2.48,10H176.71a53.29,53.29,0,0,0,2.52-10A93.26,93.26,0,0,0,179.93,414.52ZM117.47,378h.76a14.7,14.7,0,0,0,15.24-15.32,12.89,12.89,0,0,0-4.05-9.82,14.56,14.56,0,0,0-10.37-3.81h-1.58Zm-24.23,36.5V352.75a86.25,86.25,0,0,0-.74-12.4,51.67,51.67,0,0,0-2.48-10h31.85q16.95,0,26.15,8.26T157.23,362q0,14.52-10.21,23.09a29.5,29.5,0,0,1-8,4.91l14.66,24.5A123.17,123.17,0,0,0,162,427a93.29,93.29,0,0,0,9,9.95H145.92c-1.6,0-4.35-2.51-8.19-7.56A146.69,146.69,0,0,1,126,410.92l-8.51-16v19.6a86.25,86.25,0,0,0,.74,12.4,51.67,51.67,0,0,0,2.48,10H90a53.29,53.29,0,0,0,2.52-10A93.26,93.26,0,0,0,93.24,414.52Zm-16.11,16a80.42,80.42,0,0,1-15.78,6.55A59.58,59.58,0,0,1,46,438.85q-20.24,0-33.12-14.79T0,386.06q0-25.21,14.12-41.24t36.2-16.05a76.46,76.46,0,0,1,11.09.72c3.24.47,8,1.47,14.19,3v27.71a49.88,49.88,0,0,0-12.61-8,33.85,33.85,0,0,0-12.85-2.25c-7,0-12.8,3-17.26,9.16S26.15,373,26.15,382.58q0,16.21,6.49,25.71t17.5,9.51a28.56,28.56,0,0,0,14-3.44q6.25-3.42,12.94-11.46Z"/><path class="cls-1" d="M156.5,285.48c166.11-47.93,318-143.33,266.21-274.11C455.63,75.17,494.07,150,531.49,225.28c15.48,31.13-21.8,60.2-60.9,60.2H156.5"/><path class="cls-2" d="M337.55,8.5C391.3-3.11,402.75-4.81,419,16.09c11.93,26.73,10.63,79.63-11.09,112.39C388,91.79,357.43,45.19,337.55,8.5"/><path class="cls-3" d="M581.78,196.54c-55.44,22.07-109.68,42.22-187,45.11-101.13,3.77-183.87-27.52-183.87-61.27,0-28,58.9-53.13,143.65-59.25-58.91,8.7-99.39,26.83-99.39,46.35,0,16.73,27.64,31.93,70.44,41.76,31.12,7.15,69.32,8.27,110.79,8,46.16-.3,106-13.21,145.38-20.71"/></g></g></svg>