<?xml version="1.0" encoding="UTF-8" standalone="no"?>
<svg
   xmlns:dc="http://purl.org/dc/elements/1.1/"
   xmlns:cc="http://creativecommons.org/ns#"
   xmlns:rdf="http://www.w3.org/1999/02/22-rdf-syntax-ns#"
   xmlns:svg="http://www.w3.org/2000/svg"
   xmlns="http://www.w3.org/2000/svg"
   xmlns:sodipodi="http://sodipodi.sourceforge.net/DTD/sodipodi-0.dtd"
   xmlns:inkscape="http://www.inkscape.org/namespaces/inkscape"
   viewBox="0 0 737.01 490.4"
   version="1.1"
   id="svg104"
   sodipodi:docname="LogoCristofoli.svg"
   inkscape:version="1.0.1 (1.0.1+r74)">
  <metadata
     id="metadata108">
    <rdf:RDF>
      <cc:Work
         rdf:about="">
        <dc:format>image/svg+xml</dc:format>
        <dc:type
           rdf:resource="http://purl.org/dc/dcmitype/StillImage" />
      </cc:Work>
    </rdf:RDF>
  </metadata>
  <sodipodi:namedview
     pagecolor="#ffffff"
     bordercolor="#666666"
     borderopacity="1"
     objecttolerance="10"
     gridtolerance="10"
     guidetolerance="10"
     inkscape:pageopacity="0"
     inkscape:pageshadow="2"
     inkscape:window-width="1366"
     inkscape:window-height="704"
     id="namedview106"
     showgrid="false"
     inkscape:zoom="0.85839035"
     inkscape:cx="342.39296"
     inkscape:cy="281.8636"
     inkscape:window-x="0"
     inkscape:window-y="27"
     inkscape:window-maximized="1"
     inkscape:current-layer="svg104" />
  <defs
     id="defs88">
    <style
       id="style86">.cls-1{fill:#003b4d;}.cls-1,.cls-2,.cls-3{fill-rule:evenodd;}.cls-2{fill:#006580;}.cls-3{fill:#0083c1;}</style>
  </defs>
  <title
     id="title90">Logo-Cristófoli</title>
  <g
     id="Camada_2"
     data-name="Camada 2">
    <g
       id="Camada_1-2"
       data-name="Camada 1">
      <path
         class="cls-1"
         d="M706.22,482.76l11.12-23.25h7.15l11.28,23.25h-7.11l-2.37-4.94H715l-2,4.94Zm18.61-8.85-3.28-7.51a11.68,11.68,0,0,1-.36-1.14c-.14-.54-.3-1.2-.45-2-.18.75-.34,1.43-.5,2s-.28,1-.36,1.2l-3.16,7.41ZM659.1,489.72v-2c1.06.23,2,.39,2.94.51a17.17,17.17,0,0,0,2.21.18,3,3,0,0,0,1.51-.3,1,1,0,0,0,.49-.9.85.85,0,0,0-.54-.83,5.15,5.15,0,0,0-1.87-.24h-.64l-.5,0v-3.39h2v1.43h.3a6.42,6.42,0,0,1,3.5.77,2.79,2.79,0,0,1-.14,4.66,8.07,8.07,0,0,1-4,.78,20.83,20.83,0,0,1-2.38-.17Q660.66,490.05,659.1,489.72Zm14.51-24.16a13.5,13.5,0,0,0-8.18-2.61,11.62,11.62,0,0,0-7.45,2.22,7.28,7.28,0,0,0-2.77,6,7.19,7.19,0,0,0,2.57,5.82,10.64,10.64,0,0,0,7,2.16,15.82,15.82,0,0,0,4.71-.68,13.74,13.74,0,0,0,4-2l0,5.09a18.85,18.85,0,0,1-4.18,1.4,22.08,22.08,0,0,1-4.6.46q-7,0-11.48-3.45a10.81,10.81,0,0,1,0-17.53q4.5-3.45,11.59-3.45a26.4,26.4,0,0,1,4.59.39,24.32,24.32,0,0,1,4.37,1.23Zm-87.93,17.2V459.51h6.49L605.11,473a10.87,10.87,0,0,1,1.23,1.61c.44.7.91,1.52,1.39,2.46a16.44,16.44,0,0,1-.32-2.05c-.07-.68-.1-1.52-.1-2.54v-13h6v23.25h-6.13L593.84,469a10,10,0,0,1-1.21-1.61c-.44-.69-.91-1.52-1.4-2.48a17,17,0,0,1,.32,2c.06.69.1,1.54.1,2.58v13.28Zm-62.9,0,11.12-23.25h7.15l11.29,23.25h-7.11l-2.38-4.94H531.53l-2,4.94Zm18.61-8.85-3.27-7.51a9.4,9.4,0,0,1-.36-1.14c-.15-.54-.3-1.2-.46-2-.18.75-.34,1.43-.5,2s-.28,1-.36,1.2l-3.16,7.41Zm-63.94-4.49h.94q3.8,0,5-.66a2.4,2.4,0,0,0,1.22-2.3,2.58,2.58,0,0,0-1.31-2.44,11.38,11.38,0,0,0-4.92-.72h-.94Zm14.9,13.34h-7.21l-7.69-10.86v10.86H471.2V459.51h8.95c3.55,0,6.21.54,8,1.64a5.75,5.75,0,0,1,.84,9.05,7.73,7.73,0,0,1-4.69,2Zm-57.89-23.25V474q0,4.74-3.13,7.07c-2.1,1.56-5.24,2.34-9.45,2.34s-7.45-.78-9.54-2.34-3.14-3.91-3.14-7.07V459.51h6.21V473.2a5.59,5.59,0,0,0,1.59,4.33,6.92,6.92,0,0,0,4.78,1.45,7.09,7.09,0,0,0,4.84-1.46,5.51,5.51,0,0,0,1.63-4.32V459.51Zm-73.73,11h13.32a2.92,2.92,0,0,1,.06.44v.73a10.65,10.65,0,0,1-3.75,8.47,14.33,14.33,0,0,1-9.71,3.24,17.66,17.66,0,0,1-11.22-3.45,10.86,10.86,0,0,1,0-17.5,19.45,19.45,0,0,1,17.76-2.26,15.61,15.61,0,0,1,5.31,3.56l-4.22,2.48A10,10,0,0,0,365,464a10.89,10.89,0,0,0-4-.69,10.59,10.59,0,0,0-6.93,2.14,7.57,7.57,0,0,0,0,11.43,10.24,10.24,0,0,0,6.8,2.17,9.64,9.64,0,0,0,5-1.15,3.44,3.44,0,0,0,1.91-3v-.25h-7Zm-68.14,12.26V459.51H309.8v4.19h-11v4.79h11v4.22h-11v5.83h11v4.22Zm-55-3,3.48-3.12a4.58,4.58,0,0,0,2.12,2,7,7,0,0,0,3.27.74,6.49,6.49,0,0,0,3.48-.82,2.54,2.54,0,0,0,1.27-2.23q0-1.65-4.25-3.28c-.92-.36-1.64-.64-2.18-.87a16.33,16.33,0,0,1-5.31-3.1,5,5,0,0,1-1.48-3.61,5.49,5.49,0,0,1,2.87-4.73,13.52,13.52,0,0,1,7.43-1.85,12.7,12.7,0,0,1,4.59.74,9,9,0,0,1,3.4,2.31l-3.69,2.81a4.15,4.15,0,0,0-1.75-1.52,6.28,6.28,0,0,0-2.62-.5,5.4,5.4,0,0,0-3,.74,2.2,2.2,0,0,0-1.14,1.91q0,1.86,4.51,3.37l1.38.48a16,16,0,0,1,5.5,3,5.24,5.24,0,0,1,1.78,3.88,6.05,6.05,0,0,1-2.8,5.22,13.08,13.08,0,0,1-7.54,1.94,16.18,16.18,0,0,1-5.76-.92A7.3,7.3,0,0,1,237.54,479.8Zm-53.17,0,3.48-3.12a4.58,4.58,0,0,0,2.12,2,7,7,0,0,0,3.27.74,6.49,6.49,0,0,0,3.48-.82,2.54,2.54,0,0,0,1.27-2.23q0-1.65-4.25-3.28c-.92-.36-1.64-.64-2.18-.87a16.33,16.33,0,0,1-5.31-3.1,5,5,0,0,1-1.48-3.61,5.49,5.49,0,0,1,2.87-4.73,13.52,13.52,0,0,1,7.43-1.85,12.7,12.7,0,0,1,4.59.74,9,9,0,0,1,3.4,2.31l-3.69,2.81a4.15,4.15,0,0,0-1.75-1.52,6.28,6.28,0,0,0-2.62-.5,5.46,5.46,0,0,0-3,.74,2.21,2.21,0,0,0-1.13,1.91q0,1.86,4.51,3.37l1.38.48a16.06,16.06,0,0,1,5.5,3,5.24,5.24,0,0,1,1.78,3.88,6,6,0,0,1-2.81,5.22,13,13,0,0,1-7.53,1.94,16.18,16.18,0,0,1-5.76-.92A7.3,7.3,0,0,1,184.37,479.8ZM135.13,479a9.71,9.71,0,0,0,6.56-2.22,7,7,0,0,0,2.58-5.55,7.08,7.08,0,0,0-2.61-5.56,10.7,10.7,0,0,0-13.13,0,7.27,7.27,0,0,0,0,11.13A9.85,9.85,0,0,0,135.13,479Zm15.57-7.77a10.08,10.08,0,0,1-1.16,4.72,12.09,12.09,0,0,1-3.37,3.91,17.11,17.11,0,0,1-5.13,2.65,19.47,19.47,0,0,1-11.16.2,17.65,17.65,0,0,1-4.7-2.08,12.88,12.88,0,0,1-4.23-4.17,10.12,10.12,0,0,1-.3-9.94,12.11,12.11,0,0,1,3.39-3.92,16.64,16.64,0,0,1,5.1-2.63,19.54,19.54,0,0,1,6-.94,19.2,19.2,0,0,1,5.93.94,16.81,16.81,0,0,1,5.11,2.63,12.08,12.08,0,0,1,3.37,3.93A10,10,0,0,1,150.7,471.18ZM77.57,482.76V459.51h6.25v23.25Zm-54.8,0V459.51h5.47a51.27,51.27,0,0,1,6.22.26,13.35,13.35,0,0,1,3.41.87,6.62,6.62,0,0,1,2.63,2,4.76,4.76,0,0,1,.92,2.88,4,4,0,0,1-1.54,3.31,9,9,0,0,1-4.59,1.66,10.57,10.57,0,0,1,5.34,1.83,4.51,4.51,0,0,1,1.81,3.76,5.21,5.21,0,0,1-1,3.14,6.74,6.74,0,0,1-2.85,2.2,14.62,14.62,0,0,1-3.8,1,59.91,59.91,0,0,1-7.21.3H22.77Zm6.25-14h1.39a9.15,9.15,0,0,0,4-.63A2.25,2.25,0,0,0,35.61,466,2.2,2.2,0,0,0,34.48,464a9,9,0,0,0-3.94-.61H29Zm0,10.09h2.45a6.38,6.38,0,0,0,3.58-.82,2.7,2.7,0,0,0,1.22-2.39,2.5,2.5,0,0,0-1.21-2.25,6.5,6.5,0,0,0-3.51-.78H29Z"
         id="path92" />
      <path
         class="cls-1"
         d="M709.56,414.52V352.75a85.68,85.68,0,0,0-.74-12.33,52.35,52.35,0,0,0-2.49-10.09H737a51.67,51.67,0,0,0-2.48,10,86.08,86.08,0,0,0-.75,12.4v61.77a86.08,86.08,0,0,0,.75,12.4,51.67,51.67,0,0,0,2.48,10H706.33a52.57,52.57,0,0,0,2.53-10,93.26,93.26,0,0,0,.7-12.4m-71.24,22.42a51.67,51.67,0,0,0,2.48-10,84.66,84.66,0,0,0,.75-12.4V352.75a84.66,84.66,0,0,0-.75-12.4,51.67,51.67,0,0,0-2.48-10H669a51.7,51.7,0,0,0-2.49,10,86.25,86.25,0,0,0-.74,12.4v65.19a97.12,97.12,0,0,0,13.32-1.76,61.58,61.58,0,0,0,18.72-7.7l-5,14.23-5.1,14.23H638.32ZM593,418c2.78-3,5-7.55,6.8-13.69a68.74,68.74,0,0,0,2.65-19.16q0-17.1-10.34-27.07t-26.55-8.48q-4.17,4.5-6.8,13.74a69.45,69.45,0,0,0-2.65,19.23q0,17.06,10.36,27T593,418Zm-13.72,20.84q-21.72,0-35.52-15.4T530,383.88q0-24.24,13.82-39.67t35.52-15.44q21.78,0,35.54,15.44t13.8,39.67q0,24.17-13.8,39.57T579.32,438.85ZM468.14,414.52V352.75a86.25,86.25,0,0,0-.74-12.4,51.67,51.67,0,0,0-2.48-10H530.3l-11.15,23.53c-2.15-1.23-10.56-3-15.61-3H492.37v23.57h27.45l-5.53,11.64-5.56,11.72a21,21,0,0,0-10.4-3h-6v19.72a87.73,87.73,0,0,0,.74,12.4,52.4,52.4,0,0,0,2.48,10H464.92a53.29,53.29,0,0,0,2.52-10A93.26,93.26,0,0,0,468.14,414.52Zm-76.24-92,5.44-8.61h24.08l-6.51,8.61Zm26.87,94.13q4.17-4.5,6.81-13.7a69.1,69.1,0,0,0,2.64-19.16q0-17.08-10.33-27.06t-26.55-8.49q-4.18,4.5-6.81,13.74a69.5,69.5,0,0,0-2.64,19.23q0,17.06,10.35,27T418.77,416.62Zm-13.72,20.83q-21.71,0-35.52-15.39t-13.81-39.58q0-24.24,13.81-39.66t35.52-15.44q21.78,0,35.54,15.44t13.8,39.66q0,24.18-13.8,39.58T405.05,437.45Zm-96.32-22.93V350.85H296.24a34.13,34.13,0,0,0-15,3.13l3.28-11.79,3.29-11.86h71.62l-2.71,11.44-2.7,11.46A30.54,30.54,0,0,0,342,350.85h-9v63.67a75.82,75.82,0,0,0,.8,11.86,56.69,56.69,0,0,0,2.78,10.56H305.15A56.74,56.74,0,0,0,308,426.38,77.43,77.43,0,0,0,308.73,414.52ZM273.15,356.4a36.51,36.51,0,0,0-8.15-6.31,15.82,15.82,0,0,0-7.4-1.88,8.13,8.13,0,0,0-6,2.26,7.59,7.59,0,0,0-2.32,5.72,13.22,13.22,0,0,0,1.64,6.6,29.23,29.23,0,0,0,5.87,6.67q10.2,9.21,14.85,17.26a32.23,32.23,0,0,1,4.63,16.46q0,15.06-8.65,24.67t-22.27,9.6a51,51,0,0,1-11.23-1.05,63.62,63.62,0,0,1-11.11-4.06V405.22a25.65,25.65,0,0,0,8.41,8.23,19.44,19.44,0,0,0,10.19,3.17,8.54,8.54,0,0,0,6.61-2.84,10.49,10.49,0,0,0,2.54-7.32,16.49,16.49,0,0,0-1.82-7.91,29.76,29.76,0,0,0-6.45-7.56q-9.94-8.92-14.44-16.48a28.91,28.91,0,0,1-4.52-15.11q0-14.1,8.33-23.07t21.42-8.95a50.56,50.56,0,0,1,10.41,1.18,43,43,0,0,1,9.41,3.05Zm-93.22,58.12V352.75a85.68,85.68,0,0,0-.74-12.33,53.06,53.06,0,0,0-2.48-10.09h30.67a51.67,51.67,0,0,0-2.48,10,86.25,86.25,0,0,0-.74,12.4v61.77a86.25,86.25,0,0,0,.74,12.4,51.67,51.67,0,0,0,2.48,10H176.71a53.29,53.29,0,0,0,2.52-10A93.26,93.26,0,0,0,179.93,414.52ZM117.47,378h.76a14.7,14.7,0,0,0,15.24-15.32,12.89,12.89,0,0,0-4.05-9.82,14.56,14.56,0,0,0-10.37-3.81h-1.58Zm-24.23,36.5V352.75a86.25,86.25,0,0,0-.74-12.4,51.67,51.67,0,0,0-2.48-10h31.85q16.95,0,26.15,8.26T157.23,362q0,14.52-10.21,23.09a29.5,29.5,0,0,1-8,4.91l14.66,24.5A123.17,123.17,0,0,0,162,427a93.29,93.29,0,0,0,9,9.95H145.92c-1.6,0-4.35-2.51-8.19-7.56A146.69,146.69,0,0,1,126,410.92l-8.51-16v19.6a86.25,86.25,0,0,0,.74,12.4,51.67,51.67,0,0,0,2.48,10H90a53.29,53.29,0,0,0,2.52-10A93.26,93.26,0,0,0,93.24,414.52Zm-16.11,16a80.42,80.42,0,0,1-15.78,6.55A59.58,59.58,0,0,1,46,438.85q-20.24,0-33.12-14.79T0,386.06q0-25.21,14.12-41.24t36.2-16.05a76.46,76.46,0,0,1,11.09.72c3.24.47,8,1.47,14.19,3v27.71a49.88,49.88,0,0,0-12.61-8,33.85,33.85,0,0,0-12.85-2.25c-7,0-12.8,3-17.26,9.16S26.15,373,26.15,382.58q0,16.21,6.49,25.71t17.5,9.51a28.56,28.56,0,0,0,14-3.44q6.25-3.42,12.94-11.46Z"
         id="path94" />
      <path
         class="cls-1"
         d="M156.5,285.48c166.11-47.93,318-143.33,266.21-274.11C455.63,75.17,494.07,150,531.49,225.28c15.48,31.13-21.8,60.2-60.9,60.2H156.5"
         id="path96" />
      <path
         class="cls-2"
         d="M337.55,8.5C391.3-3.11,402.75-4.81,419,16.09c11.93,26.73,10.63,79.63-11.09,112.39C388,91.79,357.43,45.19,337.55,8.5"
         id="path98" />
      <path
         class="cls-3"
         d="M581.78,196.54c-55.44,22.07-109.68,42.22-187,45.11-101.13,3.77-183.87-27.52-183.87-61.27,0-28,58.9-53.13,143.65-59.25-58.91,8.7-99.39,26.83-99.39,46.35,0,16.73,27.64,31.93,70.44,41.76,31.12,7.15,69.32,8.27,110.79,8,46.16-.3,106-13.21,145.38-20.71"
         id="path100" />
    </g>
  </g>
  <path
     style="fill:#ffffff;stroke:#000000;stroke-width:0.941267"
     d="m 382.15337,215.91478 c -23.30688,-1.63076 -47.33891,-4.55033 -48.74361,-5.92168 -0.40644,-0.3968 1.71141,-2.33481 4.70634,-4.30668 2.99493,-1.97187 10.1046,-7.08771 15.79926,-11.36853 36.03781,-27.09053 61.3711,-58.74345 72.29781,-90.33318 5.56815,-16.097829 6.72677,-23.348922 6.68879,-41.861102 -0.0297,-14.476106 -0.33897,-17.775967 -2.55223,-27.231547 -1.38513,-5.917659 -2.3899,-10.887908 -2.23281,-11.044999 0.33256,-0.332553 27.14393,51.765575 66.20135,128.638158 15.12429,29.76756 27.20681,54.38934 26.85002,54.71507 -0.67875,0.61966 -25.53467,4.52793 -44.88824,7.05811 -8.324,1.08823 -21.57062,1.54362 -50.35778,1.73117 -21.48441,0.13998 -41.18042,0.10633 -43.7689,-0.0748 z"
     id="path164" />
  <path
     style="fill:#ffffff;stroke:#000000;stroke-width:0.941267"
     d="m 173.19214,280.99975 c 40.92423,-12.88427 77.5713,-27.28162 107.24278,-42.13192 l 11.23356,-5.6223 7.7594,1.541 c 41.65902,8.27338 90.37916,9.59441 137.7896,3.73611 23.45379,-2.89808 66.03155,-12.66811 85.58873,-19.63946 4.86222,-1.73319 4.41769,-2.14091 8.63553,7.92048 2.66929,6.36742 2.90323,7.71965 2.52414,14.58964 -0.53948,9.77633 -3.51361,15.77425 -11.9264,24.05197 -7.24606,7.12973 -19.57162,13.82364 -31.64043,17.18368 l -7.53013,2.09644 -161.42726,0.21157 -161.42726,0.21157 z"
     id="path166" />
  <path
     style="fill:#ffffff;stroke:#000000;stroke-width:0.941267"
     d="m 349.20903,240.31323 c -69.95857,-4.63402 -127.08485,-26.86133 -136.56375,-53.1357 -8.87167,-24.59123 31.69972,-49.18419 99.93863,-60.5793 19.94094,-3.32991 21.91918,-2.84827 5.56332,1.35447 -33.91537,8.71478 -55.65895,20.15127 -61.58439,32.3916 -3.89998,8.05628 -1.74572,15.00828 7.22129,23.30387 13.44726,12.44036 46.62891,24.50248 81.1892,29.51372 19.58464,2.83977 30.23713,3.4713 66.82994,3.96202 29.85552,0.40036 40.42509,0.19933 53.65221,-1.02045 20.23882,-1.86639 51.42446,-6.63685 83.48797,-12.77113 13.32172,-2.54867 24.35529,-4.49995 24.51905,-4.33618 0.16376,0.16376 -6.59855,2.92855 -15.02738,6.14398 -53.8941,20.5595 -99.19879,31.3338 -146.63185,34.87179 -11.59099,0.86456 -51.21173,1.05528 -62.59424,0.30131 z"
     id="path168" />
  <path
     style="fill:#ffffff;stroke:#000000;stroke-width:0.941267"
     d="M 403.90047,120.15802 C 401.88546,116.45357 388.08892,93.091286 373.24149,68.241843 358.39406,43.392399 344.48724,19.85015 342.33744,15.925732 l -3.90873,-7.1353035 11.97903,-2.4934962 c 26.18326,-5.45017933 41.06529,-6.81087382 49.00307,-4.4804499 9.72234,2.8543492 18.54257,11.5807786 21.64227,21.4121176 8.53735,27.077948 5.49706,66.360511 -7.19188,92.92365 -2.55333,5.34518 -5.01472,9.94859 -5.46975,10.22982 -0.45503,0.28122 -2.47597,-2.51961 -4.49098,-6.22405 z"
     id="path170" />
  <path
     style="fill:#ffffff;stroke:#000000;stroke-width:0.941267"
     d="m 569.99953,437.56203 c -16.90729,-2.80456 -31.57373,-16.99955 -37.36192,-36.16095 -2.09909,-6.9489 -2.37409,-25.69984 -0.48934,-33.36576 4.66365,-18.9686 19.39089,-34.12419 36.63997,-37.70568 7.58988,-1.57591 21.02898,-0.6619 27.71489,1.88493 22.70729,8.64977 35.80877,36.13358 30.5123,64.00764 -5.52596,29.08181 -28.87115,46.00842 -57.0159,41.33982 z m 27.01521,-25.28717 c 6.458,-12.78801 7.64063,-32.94223 2.58331,-44.02427 -3.00675,-6.58867 -8.79423,-12.73312 -15.07232,-16.00197 -3.8708,-2.01543 -6.034,-2.4609 -12.18466,-2.50924 l -7.47833,-0.0588 -2.1973,3.23935 c -4.40909,6.50001 -6.37771,15.3786 -6.37771,28.76373 0,11.21369 0.20464,12.67276 2.44834,17.45638 5.9457,12.67636 17.4099,19.98877 30.4893,19.44751 l 4.69964,-0.19449 z"
     id="path172" />
  <path
     style="fill:#ffffff;stroke:#000000;stroke-width:0.941267"
     d="m 640.38437,431.80614 c 2.16883,-7.34064 2.16883,-89.1392 0,-96.47984 l -1.46003,-4.94166 h 14.83026 14.83027 l -1.48664,4.47102 c -1.23177,3.70451 -1.55257,11.23309 -1.8712,43.91385 l -0.38456,39.44284 7.16252,-0.60545 c 4.60255,-0.38906 10.18236,-1.73976 15.61169,-3.77909 4.64704,-1.7455 8.45886,-2.91488 8.47072,-2.59861 0.0118,0.31626 -1.97607,6.18733 -4.4176,13.04681 l -4.43916,12.47178 h -24.15315 -24.15315 z"
     id="path174" />
  <path
     style="fill:#ffffff;stroke:#000000;stroke-width:0.941267"
     d="m 707.8208,434.15931 c 1.88448,-7.34816 2.325,-17.07637 2.31228,-51.06372 -0.0106,-28.27406 -0.33981,-38.98379 -1.37445,-44.71018 -0.7483,-4.14157 -1.36888,-7.63602 -1.37906,-7.76545 -0.0102,-0.12942 6.4912,-0.23532 14.44754,-0.23532 h 14.46606 l -1.27362,5.41229 c -1.83332,7.79071 -1.83332,87.74787 0,95.53858 l 1.27362,5.41228 h -14.5681 -14.56811 z"
     id="path176" />
  <path
     style="fill:#ffffff;stroke:#000000;stroke-width:0.941267"
     d="m 466.97625,431.33551 c 0.97228,-4.13174 1.27179,-15.43399 1.26587,-47.76929 -0.007,-38.97466 -0.26788,-44.93435 -2.23412,-51.06372 l -0.67938,-2.11786 h 32.0665 c 17.63658,0 32.0665,0.15971 32.0665,0.35491 0,0.19519 -2.37423,5.29242 -5.27608,11.32717 -4.34262,9.03103 -5.57549,10.87724 -6.96843,10.43514 -3.76566,-1.19517 -13.06668,-2.34002 -19.05261,-2.34516 l -6.35355,-0.005 v 12.2113 12.21131 l 13.54056,0.26048 13.54055,0.26048 -5.30447,10.88552 -5.30447,10.88552 -3.29443,-1.18441 c -1.81194,-0.65142 -5.51818,-1.20832 -8.23609,-1.23754 l -4.94165,-0.0531 0.005,13.41305 c 0.005,12.32428 0.65901,19.60524 2.36734,26.35547 l 0.65509,2.58848 h -14.56811 -14.5681 l 1.27363,-5.41228 z"
     id="path178" />
  <path
     style="fill:#ffffff;stroke:#000000;stroke-width:0.941267"
     d="m 392.28568,435.35401 c -17.50912,-4.91889 -30.61028,-19.66939 -34.71084,-39.08069 -3.09463,-14.64939 -0.38403,-32.97584 6.65331,-44.98323 3.66676,-6.25637 12.58726,-15.11832 17.99552,-17.87741 14.97564,-7.64 34.97462,-6.93991 48.43161,1.69541 9.72794,6.2424 17.95876,18.10599 21.09877,30.41091 7.49723,29.37984 -5.27442,59.22044 -29.29166,68.43918 -7.10489,2.72713 -22.8461,3.45524 -30.17671,1.39583 z m 28.90434,-21.16022 c 4.71978,-6.62832 8.12674,-22.60965 7.24835,-34.00047 -0.93001,-12.06004 -6.2145,-22.00592 -14.4761,-27.24527 -5.257,-3.33389 -9.05063,-4.52486 -16.88654,-5.30134 l -5.78551,-0.57329 -2.38689,3.65676 c -5.04852,7.73444 -6.65719,14.7086 -6.70557,29.07097 -0.0394,11.69788 0.19122,13.68823 2.05363,17.72359 5.85181,12.67928 15.72054,19.24832 29.135,19.39348 5.40644,0.0585 5.95949,-0.13458 7.80363,-2.72443 z"
     id="path180" />
  <path
     style="fill:#ffffff;stroke:#000000;stroke-width:0.941267"
     d="m 307.1392,432.27678 c 1.27123,-3.75204 1.56829,-10.71476 1.84727,-43.29828 l 0.33244,-38.82725 h -8.32313 c -4.57772,0 -10.63861,0.60063 -13.46864,1.33473 -2.83004,0.7341 -5.19142,1.26356 -5.24752,1.17658 -0.0561,-0.087 1.24569,-5.0292 2.89287,-10.98271 l 2.99487,-10.82457 35.35001,-0.24653 35.35002,-0.24652 -2.34448,10.12982 c -1.28947,5.57141 -2.65392,10.46479 -3.03212,10.87419 -0.3782,0.4094 -2.55524,0.31386 -4.83787,-0.21231 -2.28262,-0.52616 -6.79754,-0.96702 -10.03314,-0.97967 l -5.88292,-0.023 0.0147,36.94472 c 0.0115,28.99247 0.30823,38.16035 1.37837,42.59232 0.75002,3.10618 1.37876,5.96528 1.3972,6.35355 0.0184,0.38828 -6.70214,0.70595 -14.93462,0.70595 h -14.96815 l 1.51484,-4.47101 z"
     id="path182" />
  <path
     style="fill:#ffffff;stroke:#000000;stroke-width:0.941267"
     d="m 230.13878,434.61726 -6.11823,-2.1861 -0.26337,-12.536 -0.26337,-12.53601 4.20805,3.70407 c 7.30423,6.42944 15.80983,7.75014 20.3934,3.16657 2.30904,-2.30904 2.75139,-3.50984 2.75139,-7.46885 0,-2.59461 -0.41722,-5.81483 -0.92715,-7.15605 -0.50993,-1.34122 -5.1385,-6.86676 -10.28571,-12.27898 -11.76196,-12.36752 -15.26027,-18.82785 -15.26027,-28.18114 0,-9.1592 2.36527,-15.7415 7.78895,-21.67587 6.15789,-6.73772 12.18797,-9.3426 21.50798,-9.29106 3.88273,0.0215 9.70681,0.7944 12.94242,1.7176 l 5.88292,1.67854 v 11.80588 11.80587 l -2.11785,-1.9365 c -3.5187,-3.21741 -8.24065,-5.15068 -12.74673,-5.2188 -3.52019,-0.0532 -4.65354,0.38356 -6.4676,2.49253 -2.3471,2.72867 -2.86336,7.17229 -1.30843,11.26207 0.49008,1.28902 4.34545,5.81669 8.56748,10.06148 8.48615,8.53189 14.48575,17.08546 16.04461,22.87462 0.56094,2.08315 0.99331,6.62556 0.96084,10.09425 -0.12132,12.95824 -6.1589,23.48155 -16.58069,28.89964 -6.89502,3.58459 -20.04497,3.99786 -28.70864,0.90224 z"
     id="path184" />
  <path
     style="fill:#ffffff;stroke:#000000;stroke-width:0.941267"
     d="m 177.80007,435.10058 c 2.05946,-6.79719 2.40779,-14.06911 2.42856,-50.69994 0.0207,-36.48003 -0.41926,-46.042 -2.40948,-52.36878 -0.47835,-1.52063 0.61273,-1.64722 14.19833,-1.64722 13.58559,0 14.67667,0.12659 14.19832,1.64722 -1.97932,6.29213 -2.43249,15.89292 -2.43249,51.53436 0,35.64143 0.45317,45.24223 2.43249,51.53436 0.47835,1.52063 -0.61273,1.64721 -14.19832,1.64721 -13.57833,0 -14.6779,-0.12739 -14.21741,-1.64721 z"
     id="path186" />
  <path
     style="fill:#ffffff;stroke:#000000;stroke-width:0.941267"
     d="m 91.273024,434.95634 c 1.863066,-5.87001 2.371168,-16.88207 2.371168,-51.39012 0,-34.72379 -0.451616,-44.25174 -2.420371,-51.06372 l -0.612088,-2.11786 15.405367,0.0291 c 8.47295,0.016 18.53475,0.43528 22.35955,0.93178 16.96645,2.2024 26.75383,11.64978 28.04681,27.0725 1.03629,12.36077 -3.04651,21.56457 -12.43409,28.03004 -2.83441,1.95213 -5.15347,3.73405 -5.15347,3.95983 0,0.67694 15.09557,25.66829 19.1782,31.7503 2.08506,3.10618 5.66981,7.65956 7.96612,10.11862 l 4.1751,4.47101 h -12.23834 c -10.9292,0 -12.50184,-0.20727 -14.70171,-1.93769 -3.36214,-2.64466 -14.12282,-18.99586 -20.3966,-30.99329 l -5.16127,-9.86995 -0.27618,14.10565 c -0.24432,12.47833 0.63508,22.97345 2.28532,27.27389 0.47215,1.23042 -1.43679,1.42139 -14.20833,1.42139 -14.075414,0 -14.727631,-0.0824 -14.185186,-1.79145 z M 127.45921,375.8146 c 1.33906,-0.97419 3.41504,-3.65253 4.61328,-5.95185 4.84374,-9.29472 -0.44696,-19.60725 -10.88534,-21.21752 l -4.00038,-0.61712 v 15.30451 15.3045 l 3.91889,-0.52563 c 2.15539,-0.2891 5.01449,-1.3227 6.35355,-2.29689 z"
     id="path188" />
  <path
     style="fill:#ffffff;stroke:#000000;stroke-width:0.941267"
     d="M 37.179088,437.66373 C 29.521065,436.06932 19.869523,430.58084 14.616513,424.83321 -5.065089,403.2984 -3.999016,363.92013 16.82648,343.20213 29.521167,330.57298 44.792302,326.83152 66.593676,331.00907 l 8.236084,1.57818 v 13.0818 13.08179 l -2.776521,-1.97706 c -10.230752,-7.28494 -23.873905,-9.30542 -32.006397,-4.74 -8.88756,4.98931 -14.162955,16.36232 -14.162955,30.53333 0,15.05966 4.23735,26.22858 12.116091,31.93591 3.57335,2.58852 4.951276,2.98325 11.44319,3.27806 6.336034,0.28774 8.117742,-0.002 12.588495,-2.04906 2.864315,-1.31132 7.339221,-4.37788 9.944237,-6.81457 l 4.736394,-4.43034 v 12.81678 12.81677 l -3.529751,1.79562 c -9.845185,5.00834 -26.660464,7.69266 -36.003455,5.74745 z"
     id="path190" />
  <path
     style="fill:#ffffff;stroke:#000000;stroke-width:0.941267"
     d="m 395.18252,318.38349 2.23199,-3.52975 11.53277,-0.26511 11.53278,-0.26511 -3.00559,3.79486 -3.00559,3.79486 h -10.75917 -10.75918 z"
     id="path192" />
  <path
     style="fill:#ffffff;stroke:#000000;stroke-width:0.941267"
     d="m 77.65356,471.10403 v -10.82457 h 2.823801 2.8238 v 10.82457 10.82457 h -2.8238 -2.823801 z"
     id="path194" />
  <path
     style="fill:#ffffff;stroke:#000000;stroke-width:0.941267"
     d="m 129.6247,482.20115 c -1.18343,-0.2268 -3.88801,-2.06407 -6.01016,-4.08283 -3.57809,-3.40375 -3.82082,-3.95116 -3.34036,-7.53329 1.07692,-8.02904 10.1642,-12.82024 19.53158,-10.29787 9.27741,2.49815 13.04777,10.73144 7.78081,16.99087 -4.07743,4.84576 -9.95678,6.45721 -17.96187,4.92312 z m 12.54842,-5.40673 c 3.80875,-3.80875 3.0497,-9.94995 -1.522,-12.31407 -4.90233,-2.53509 -12.94355,-0.91617 -14.40826,2.90078 -1.25653,3.27447 -0.54794,7.13965 1.72569,9.41329 1.8479,1.84789 3.26961,2.31038 7.10228,2.31038 3.83268,0 5.25439,-0.46249 7.10229,-2.31038 z"
     id="path196" />
  <path
     style="fill:#ffffff;stroke:#000000;stroke-width:0.941267"
     d="m 188.72304,482.07599 c -1.29424,-0.3866 -2.35316,-1.31916 -2.35316,-2.07236 0,-1.53286 0.69929,-1.60856 4.54042,-0.49156 3.4515,1.0037 7.22541,-0.67958 7.22541,-3.22276 0,-1.4021 -1.32276,-2.50492 -4.94165,-4.11998 -2.71791,-1.21297 -5.73872,-3.10284 -6.71293,-4.19971 -1.67513,-1.88608 -1.68523,-2.12563 -0.18609,-4.41362 2.56481,-3.91438 8.04144,-5.25781 13.2936,-3.26094 2.04131,0.77611 2.3061,1.21068 1.4017,2.30042 -0.86105,1.03751 -1.61899,1.11395 -3.32733,0.33557 -3.0186,-1.37536 -7.05743,-0.25516 -7.05743,1.95743 0,2.12814 1.33943,3.24755 5.6071,4.68603 3.90584,1.31652 7.57063,4.563 7.57063,6.70649 0,4.33945 -8.71129,7.69144 -15.06027,5.79499 z"
     id="path198" />
  <path
     style="fill:#ffffff;stroke:#000000;stroke-width:0.941267"
     d="m 241.46846,481.82497 c -3.13203,-1.25023 -3.3051,-1.51826 -1.99768,-3.0936 0.98021,-1.18108 1.48356,-1.15661 3.82269,0.18586 2.07367,1.19012 3.30736,1.33029 5.35883,0.60883 4.31328,-1.5169 3.47625,-4.25961 -2.13939,-7.01013 -6.39536,-3.13242 -7.90273,-4.50358 -7.90273,-7.18859 0,-4.53177 8.82103,-7.50496 14.53799,-4.90014 1.75398,0.79916 2.13194,1.40007 1.4201,2.25778 -0.73479,0.88537 -1.62988,0.9197 -3.69136,0.14158 -2.00463,-0.75666 -3.3586,-0.73686 -5.14088,0.0752 -4.22528,1.92516 -3.07581,3.63107 5.11062,7.58463 4.51735,2.18161 5.21435,2.88721 5.47032,5.53782 0.24863,2.57455 -0.18187,3.3274 -2.8238,4.93813 -3.32219,2.02548 -8.22963,2.37753 -12.02471,0.86262 z"
     id="path200" />
  <path
     style="fill:#ffffff;stroke:#000000;stroke-width:0.941267"
     d="m 293.20366,471.10403 v -10.82457 h 8.00076 c 6.48429,0 8.00077,0.26762 8.00077,1.4119 0,1.09815 -1.25502,1.4119 -5.6476,1.4119 h -5.6476 v 2.8238 2.8238 h 5.6476 c 5.02009,0 5.6476,0.20917 5.6476,1.88254 0,1.67336 -0.62751,1.88253 -5.6476,1.88253 h -5.6476 v 3.29443 3.29444 h 5.6476 c 4.39258,0 5.6476,0.31375 5.6476,1.4119 0,1.14428 -1.51648,1.4119 -8.00077,1.4119 h -8.00076 z"
     id="path202" />
  <path
     style="fill:#ffffff;stroke:#000000;stroke-width:0.941267"
     d="m 352.8635,481.06852 c -5.00588,-2.27325 -6.9489,-5.14405 -6.9489,-10.26691 0,-3.39009 0.51494,-4.60029 2.90909,-6.83675 5.32003,-4.96965 15.33045,-5.85652 20.61644,-1.8265 2.02201,1.54158 2.12996,1.87266 0.7795,2.39088 -0.86214,0.33084 -2.41992,0.14533 -3.46173,-0.41223 -3.41001,-1.82498 -10.12684,-1.23528 -12.87729,1.13055 -3.60228,3.09855 -3.65065,8.57278 -0.10272,11.62458 4.35713,3.74785 14.72711,2.62147 14.72711,-1.59964 0,-0.48072 -1.69428,-0.87404 -3.76507,-0.87404 -3.13755,0 -3.76506,-0.31375 -3.76506,-1.88253 0,-1.68945 0.62751,-1.88253 6.11823,-1.88253 6.10096,0 6.11823,0.008 6.11823,2.68635 0,3.07042 -3.41321,7.22253 -7.08471,8.61844 -3.7421,1.42274 -8.9699,1.07995 -13.26312,-0.86967 z"
     id="path204" />
  <path
     style="fill:#ffffff;stroke:#000000;stroke-width:0.941267"
     d="m 415.56834,482.20512 c -0.77655,-0.28387 -2.36493,-1.38319 -3.52975,-2.44294 -1.90715,-1.73511 -2.11785,-2.80011 -2.11785,-10.70476 0,-8.73564 0.0113,-8.77796 2.35317,-8.77796 2.30833,0 2.35316,0.13947 2.35316,7.3207 0,9.37743 1.2882,11.50464 6.96699,11.50464 6.01658,0 7.15201,-1.7676 7.15201,-11.134 v -7.69134 h 2.82381 2.8238 l -0.005,6.35355 c -0.008,9.29358 -1.25704,12.90424 -5.09546,14.7257 -3.05576,1.45005 -10.7716,1.92589 -13.7246,0.84641 z"
     id="path206" />
  <path
     style="fill:#ffffff;stroke:#000000;stroke-width:0.941267"
     d="m 472.04435,471.10403 v -10.82457 h 6.85006 c 8.16799,0 11.03401,1.49217 11.03401,5.74476 0,2.14099 -0.67409,3.19778 -2.81785,4.41764 -1.54982,0.88189 -2.82053,1.8602 -2.8238,2.17403 -0.003,0.31383 1.49594,2.53757 3.3316,4.94165 l 3.33755,4.37106 H 488.129 c -2.36098,0 -3.4153,-0.8474 -6.39667,-5.14125 -1.96336,-2.82769 -3.88743,-5.15733 -4.2757,-5.17697 -0.38827,-0.0196 -0.70595,2.29392 -0.70595,5.14125 0,4.89459 -0.12835,5.17697 -2.35317,5.17697 h -2.35316 z m 12.30195,-2.9027 c 1.87093,-2.25434 -0.0906,-4.57332 -4.1612,-4.91957 -3.36333,-0.28609 -3.43442,-0.22277 -3.43442,3.05912 0,3.17935 0.16308,3.35125 3.17918,3.35125 1.75242,0 3.73444,-0.66904 4.41644,-1.4908 z"
     id="path208" />
  <path
     style="fill:#ffffff;stroke:#000000;stroke-width:0.941267"
     d="m 528.85117,471.33935 c 4.89703,-10.45551 5.00309,-10.59292 8.39736,-10.87929 l 3.43769,-0.29003 5.21227,10.39297 c 2.86675,5.71614 5.21227,10.61182 5.21227,10.87929 0,0.26747 -1.27979,0.48631 -2.84398,0.48631 -2.12016,0 -3.11686,-0.59891 -3.91616,-2.35317 -0.98008,-2.15105 -1.58644,-2.35317 -7.0595,-2.35317 -5.47305,0 -6.07942,0.20212 -7.0595,2.35317 -0.77184,1.694 -1.81,2.35317 -3.70614,2.35317 h -2.63397 z m 12.33389,1.043 c -0.35194,-1.10887 -1.41524,-3.74792 -2.36289,-5.86455 -1.4776,-3.30033 -1.81746,-3.58294 -2.3863,-1.98427 -0.36482,1.02529 -1.23613,3.2925 -1.93625,5.03824 -1.8457,4.60228 -1.705,4.82669 3.0262,4.82669 3.96573,0 4.24951,-0.15634 3.65924,-2.01611 z"
     id="path210" />
  <path
     style="fill:#ffffff;stroke:#000000;stroke-width:0.941267"
     d="m 585.93763,471.10403 v -10.82457 h 3.16954 c 2.73454,0 4.15558,1.03207 10.35394,7.51982 3.95141,4.1359 7.18439,7.94803 7.18439,8.4714 0,0.52337 0.31768,0.95256 0.70595,0.95375 0.38827,0.001 0.57,-3.81095 0.40383,-8.47141 l -0.30212,-8.47356 h 2.89061 2.8906 v 10.82457 10.82457 h -3.16955 c -2.73453,0 -4.15557,-1.03207 -10.35393,-7.51982 -3.95142,-4.1359 -7.18439,-7.94803 -7.18439,-8.4714 0,-0.52337 -0.34224,-0.95158 -0.76052,-0.95158 -0.41829,0 -0.57826,3.81213 -0.3555,8.4714 l 0.40502,8.4714 h -2.93893 -2.93894 z"
     id="path212" />
  <path
     style="fill:#ffffff;stroke:#000000;stroke-width:0.941267"
     d="m 657.11315,481.17197 c -12.49418,-5.25082 -9.36636,-19.31849 4.76652,-21.43784 5.80907,-0.87113 11.0519,0.57166 11.42305,3.14353 0.29216,2.02445 0.23066,2.03629 -3.17859,0.61181 -3.70455,-1.54786 -9.11682,-1.15926 -11.79052,0.84656 -4.35962,3.27059 -4.56527,10.70707 -0.37209,13.45455 2.62308,1.71871 10.68036,1.95229 13.59199,0.39404 1.64595,-0.88089 1.92193,-0.75016 1.92193,0.91036 0,1.17532 -0.88109,2.27394 -2.23719,2.78953 -3.05138,1.16013 -10.57183,0.78076 -14.1251,-0.71254 z"
     id="path214" />
  <path
     style="fill:#ffffff;stroke:#000000;stroke-width:0.941267"
     d="m 718.43779,477.48137 c 1.69178,-0.20949 4.2332,-0.20517 5.6476,0.01 1.41439,0.21477 0.0302,0.38618 -3.07598,0.38089 -3.10618,-0.005 -4.26341,-0.181 -2.57162,-0.39049 z"
     id="path216" />
  <path
     style="fill:#ffffff;stroke:#000000;stroke-width:0.941267"
     d="m 708.93041,478.39885 c 0.81031,-1.94136 3.13541,-6.83697 5.16687,-10.87913 3.67517,-7.31275 3.71069,-7.34793 7.12863,-7.0595 3.39092,0.28615 3.49878,0.42593 8.39472,10.87913 l 4.95967,10.58925 h -2.80524 c -2.06384,0 -3.08304,-0.6097 -3.85635,-2.30694 -1.99169,-4.37129 -12.17092,-4.36802 -14.1632,0.005 -0.74773,1.64108 -1.80292,2.30239 -3.67372,2.30239 h -2.62468 z m 16.31471,-4.31112 c 0,-0.17091 -1.01465,-2.80469 -2.25478,-5.85285 l -2.25478,-5.54212 -1.53763,3.68008 c -3.22152,7.71018 -3.15433,8.02562 1.70944,8.02562 2.38576,0 4.33775,-0.13983 4.33775,-0.31073 z"
     id="path218" />
  <path
     style="fill:#ffffff;stroke:#000000;stroke-width:0.941267"
     d="m 23.060086,471.10403 v -10.82457 h 6.073945 c 6.466146,0 10.422197,1.24342 11.309053,3.55453 0.903844,2.35538 -0.379463,4.7362 -3.071772,5.6988 l -2.545391,0.91008 3.064791,1.13059 c 4.368237,1.61142 5.136718,5.23431 1.731582,8.16328 -2.174549,1.87047 -3.575602,2.19186 -9.555195,2.19186 h -7.007013 z m 13.064806,6.32925 c 1.443496,-2.6972 -0.439025,-4.91735 -4.169543,-4.91735 -3.084102,0 -3.247662,0.16592 -3.247662,3.29443 0,3.13119 0.161609,3.29444 3.261316,3.29444 2.160738,0 3.563203,-0.56408 4.155889,-1.67152 z m -0.357704,-11.50622 c 0,-2.03977 -0.470098,-2.39207 -3.52975,-2.6453 -3.387187,-0.28034 -3.529751,-0.1735 -3.529751,2.6453 0,2.8188 0.142564,2.92564 3.529751,2.64531 3.059652,-0.25323 3.52975,-0.60554 3.52975,-2.64531 z"
     id="path220" />
  <path
     style="fill:#ffffff;stroke:#000000;stroke-width:0.941267"
     d=""
     id="path222" />
  <path
     style="fill:#ffffff;stroke:#000000;stroke-width:0.941267"
     d=""
     id="path224" />
  <path
     style="fill:#ffffff;stroke:#000000;stroke-width:0.941267"
     d=""
     id="path226" />
  <path
     style="fill:#ffffff;stroke:#000000;stroke-width:0.941267"
     d=""
     id="path228" />
  <path
     style="fill:#ffffff;stroke:#000000;stroke-width:0.941267"
     d="m 660.76834,489.15671 c -1.53442,-0.72795 -1.35217,-0.81416 0.9856,-0.4662 1.57747,0.23479 3.43191,0.0785 4.12097,-0.34741 1.48628,-0.91857 0.53679,-2.8673 -1.39705,-2.8673 -0.746,0 -1.35635,-0.40154 -1.35635,-0.89231 0,-0.54176 1.10932,-0.50559 2.8238,0.0921 3.37963,1.17815 3.79727,4.08485 0.70595,4.91329 -2.70835,0.72581 -3.57654,0.66204 -5.88292,-0.43215 z"
     id="path230" />
  <path
     style="fill:#ffffff;stroke:#000000;stroke-width:0.579524"
     d=""
     id="path232" />
  <path
     style="fill:#ffffff;stroke:#000000;stroke-width:0.579524"
     d="m 329.64344,124.59497 c 0,-0.73068 2.3794,-1.18551 8.69285,-1.66167 4.29463,-0.3239 3.56603,-0.0497 -3.62202,1.36312 -3.78959,0.74484 -5.07083,0.82028 -5.07083,0.29855 z"
     id="path234" />
</svg>
